<?xml version="1.0" encoding="UTF-8" standalone="no"?>
<!DOCTYPE svg PUBLIC "-//W3C//DTD SVG 1.1//EN"
 "http://www.w3.org/Graphics/SVG/1.1/DTD/svg11.dtd">
<!-- Generated by graphviz version 5.0.0 (20220707.1540)
 -->
<!-- Title: dependencies Pages: 1 -->
<svg width="1086pt" height="247pt"
 viewBox="0.00 0.00 1086.00 246.80" xmlns="http://www.w3.org/2000/svg" xmlns:xlink="http://www.w3.org/1999/xlink">
<g id="graph0" class="graph" transform="scale(1 1) rotate(0) translate(4 242.8)">
<title>dependencies</title>
<polygon fill="white" stroke="transparent" points="-4,4 -4,-242.8 1082,-242.8 1082,4 -4,4"/>
<text text-anchor="middle" x="539" y="-8.2" font-family="sans-serif" font-size="14.00">dependencies</text>
<g id="clust1" class="cluster">
<title>cluster_MongoModule</title>
<polygon fill="none" stroke="black" stroke-dasharray="1,5" points="8,-32.8 8,-230.8 1070,-230.8 1070,-32.8 8,-32.8"/>
</g>
<g id="clust6" class="cluster">
<title>cluster_MongoModule_providers</title>
<polygon fill="none" stroke="black" points="16,-40.8 16,-92.8 1062,-92.8 1062,-40.8 16,-40.8"/>
</g>
<g id="clust4" class="cluster">
<title>cluster_MongoModule_exports</title>
<polygon fill="none" stroke="black" points="76,-170.8 76,-222.8 995,-222.8 995,-170.8 76,-170.8"/>
</g>
<!-- ConfigService  -->
<g id="node1" class="node">
<title>ConfigService </title>
<polygon fill="#fb8072" stroke="black" points="987.37,-214.8 886.63,-214.8 886.63,-178.8 987.37,-178.8 987.37,-214.8"/>
<text text-anchor="middle" x="937" y="-192.6" font-family="Times,serif" font-size="14.00">ConfigService </text>
</g>
<!-- EmpresaMongoService  -->
<g id="node2" class="node">
<title>EmpresaMongoService </title>
<polygon fill="#fb8072" stroke="black" points="868.41,-214.8 717.59,-214.8 717.59,-178.8 868.41,-178.8 868.41,-214.8"/>
<text text-anchor="middle" x="793" y="-192.6" font-family="Times,serif" font-size="14.00">EmpresaMongoService </text>
</g>
<!-- EmpresaRepository  -->
<g id="node3" class="node">
<title>EmpresaRepository </title>
<polygon fill="#fb8072" stroke="black" points="699.92,-214.8 570.08,-214.8 570.08,-178.8 699.92,-178.8 699.92,-214.8"/>
<text text-anchor="middle" x="635" y="-192.6" font-family="Times,serif" font-size="14.00">EmpresaRepository </text>
</g>
<!-- MongooseConfigService  -->
<g id="node4" class="node">
<title>MongooseConfigService </title>
<polygon fill="#fb8072" stroke="black" points="551.98,-214.8 392.02,-214.8 392.02,-178.8 551.98,-178.8 551.98,-214.8"/>
<text text-anchor="middle" x="472" y="-192.6" font-family="Times,serif" font-size="14.00">MongooseConfigService </text>
</g>
<!-- PersonaMongoService  -->
<g id="node5" class="node">
<title>PersonaMongoService </title>
<polygon fill="#fb8072" stroke="black" points="374.25,-214.8 227.75,-214.8 227.75,-178.8 374.25,-178.8 374.25,-214.8"/>
<text text-anchor="middle" x="301" y="-192.6" font-family="Times,serif" font-size="14.00">PersonaMongoService </text>
</g>
<!-- PersonaRepository  -->
<g id="node6" class="node">
<title>PersonaRepository </title>
<polygon fill="#fb8072" stroke="black" points="209.77,-214.8 84.23,-214.8 84.23,-178.8 209.77,-178.8 209.77,-214.8"/>
<text text-anchor="middle" x="147" y="-192.6" font-family="Times,serif" font-size="14.00">PersonaRepository </text>
</g>
<!-- MongoModule -->
<g id="node7" class="node">
<title>MongoModule</title>
<polygon fill="#8dd3c7" stroke="black" points="582,-149.8 579,-153.8 558,-153.8 555,-149.8 482,-149.8 482,-113.8 582,-113.8 582,-149.8"/>
<text text-anchor="middle" x="532" y="-127.6" font-family="Times,serif" font-size="14.00">MongoModule</text>
</g>
<!-- MongoModule&#45;&gt;ConfigService  -->
<g id="edge1" class="edge">
<title>MongoModule&#45;&gt;ConfigService </title>
<path fill="none" stroke="black" stroke-dasharray="5,2" d="M582.07,-135.8C690.43,-135.8 937,-135.8 937,-135.8 937,-135.8 937,-168.5 937,-168.5"/>
<polygon fill="black" stroke="black" points="933.5,-168.5 937,-178.5 940.5,-168.5 933.5,-168.5"/>
</g>
<!-- MongoModule&#45;&gt;EmpresaMongoService  -->
<g id="edge2" class="edge">
<title>MongoModule&#45;&gt;EmpresaMongoService </title>
<path fill="none" stroke="black" stroke-dasharray="5,2" d="M582.03,-142.8C653.13,-142.8 774.87,-142.8 774.87,-142.8 774.87,-142.8 774.87,-168.52 774.87,-168.52"/>
<polygon fill="black" stroke="black" points="771.37,-168.52 774.87,-178.52 778.37,-168.52 771.37,-168.52"/>
</g>
<!-- MongoModule&#45;&gt;EmpresaRepository  -->
<g id="edge3" class="edge">
<title>MongoModule&#45;&gt;EmpresaRepository </title>
<path fill="none" stroke="black" stroke-dasharray="5,2" d="M576.02,-149.91C576.02,-149.91 576.02,-168.79 576.02,-168.79"/>
<polygon fill="black" stroke="black" points="572.52,-168.79 576.02,-178.79 579.52,-168.79 572.52,-168.79"/>
</g>
<!-- MongoModule&#45;&gt;MongooseConfigService  -->
<g id="edge4" class="edge">
<title>MongoModule&#45;&gt;MongooseConfigService </title>
<path fill="none" stroke="black" stroke-dasharray="5,2" d="M516.87,-149.91C516.87,-149.91 516.87,-168.79 516.87,-168.79"/>
<polygon fill="black" stroke="black" points="513.37,-168.79 516.87,-178.79 520.37,-168.79 513.37,-168.79"/>
</g>
<!-- MongoModule&#45;&gt;PersonaMongoService  -->
<g id="edge5" class="edge">
<title>MongoModule&#45;&gt;PersonaMongoService </title>
<path fill="none" stroke="black" stroke-dasharray="5,2" d="M481.88,-142.8C413.94,-142.8 301,-142.8 301,-142.8 301,-142.8 301,-168.52 301,-168.52"/>
<polygon fill="black" stroke="black" points="297.5,-168.52 301,-178.52 304.5,-168.52 297.5,-168.52"/>
</g>
<!-- MongoModule&#45;&gt;PersonaRepository  -->
<g id="edge6" class="edge">
<title>MongoModule&#45;&gt;PersonaRepository </title>
<path fill="none" stroke="black" stroke-dasharray="5,2" d="M481.69,-135.8C389.03,-135.8 200.76,-135.8 200.76,-135.8 200.76,-135.8 200.76,-168.5 200.76,-168.5"/>
<polygon fill="black" stroke="black" points="197.26,-168.5 200.76,-178.5 204.26,-168.5 197.26,-168.5"/>
</g>
<!-- EmpresaMongoService -->
<g id="node8" class="node">
<title>EmpresaMongoService</title>
<ellipse fill="#fdb462" stroke="black" cx="952" cy="-66.8" rx="101.86" ry="18"/>
<text text-anchor="middle" x="952" y="-62.6" font-family="Times,serif" font-size="14.00">EmpresaMongoService</text>
</g>
<!-- EmpresaMongoService&#45;&gt;MongoModule -->
<g id="edge7" class="edge">
<title>EmpresaMongoService&#45;&gt;MongoModule</title>
<path fill="none" stroke="black" d="M859.39,-74.4C859.39,-90.96 859.39,-128.8 859.39,-128.8 859.39,-128.8 592.08,-128.8 592.08,-128.8"/>
<polygon fill="black" stroke="black" points="592.08,-125.3 582.08,-128.8 592.08,-132.3 592.08,-125.3"/>
</g>
<!-- EmpresaRepository -->
<g id="node9" class="node">
<title>EmpresaRepository</title>
<ellipse fill="#fdb462" stroke="black" cx="745" cy="-66.8" rx="87.41" ry="18"/>
<text text-anchor="middle" x="745" y="-62.6" font-family="Times,serif" font-size="14.00">EmpresaRepository</text>
</g>
<!-- EmpresaRepository&#45;&gt;MongoModule -->
<g id="edge8" class="edge">
<title>EmpresaRepository&#45;&gt;MongoModule</title>
<path fill="none" stroke="black" d="M678.88,-78.73C678.88,-94.91 678.88,-121.8 678.88,-121.8 678.88,-121.8 592.14,-121.8 592.14,-121.8"/>
<polygon fill="black" stroke="black" points="592.14,-118.3 582.14,-121.8 592.14,-125.3 592.14,-118.3"/>
</g>
<!-- MongooseConfigService -->
<g id="node10" class="node">
<title>MongooseConfigService</title>
<ellipse fill="#fdb462" stroke="black" cx="532" cy="-66.8" rx="107.68" ry="18"/>
<text text-anchor="middle" x="532" y="-62.6" font-family="Times,serif" font-size="14.00">MongooseConfigService</text>
</g>
<!-- MongooseConfigService&#45;&gt;MongoModule -->
<g id="edge9" class="edge">
<title>MongooseConfigService&#45;&gt;MongoModule</title>
<path fill="none" stroke="black" d="M532,-84.91C532,-84.91 532,-103.79 532,-103.79"/>
<polygon fill="black" stroke="black" points="528.5,-103.79 532,-113.79 535.5,-103.79 528.5,-103.79"/>
</g>
<!-- PersonaMongoService -->
<g id="node11" class="node">
<title>PersonaMongoService</title>
<ellipse fill="#fdb462" stroke="black" cx="308" cy="-66.8" rx="98.44" ry="18"/>
<text text-anchor="middle" x="308" y="-62.6" font-family="Times,serif" font-size="14.00">PersonaMongoService</text>
</g>
<!-- PersonaMongoService&#45;&gt;MongoModule -->
<g id="edge10" class="edge">
<title>PersonaMongoService&#45;&gt;MongoModule</title>
<path fill="none" stroke="black" d="M399.36,-73.54C399.36,-88.23 399.36,-121.8 399.36,-121.8 399.36,-121.8 471.86,-121.8 471.86,-121.8"/>
<polygon fill="black" stroke="black" points="471.86,-125.3 481.86,-121.8 471.86,-118.3 471.86,-125.3"/>
</g>
<!-- PersonaRepository -->
<g id="node12" class="node">
<title>PersonaRepository</title>
<ellipse fill="#fdb462" stroke="black" cx="108" cy="-66.8" rx="83.98" ry="18"/>
<text text-anchor="middle" x="108" y="-62.6" font-family="Times,serif" font-size="14.00">PersonaRepository</text>
</g>
<!-- PersonaRepository&#45;&gt;MongoModule -->
<g id="edge11" class="edge">
<title>PersonaRepository&#45;&gt;MongoModule</title>
<path fill="none" stroke="black" d="M138.18,-83.74C138.18,-102.1 138.18,-128.8 138.18,-128.8 138.18,-128.8 471.72,-128.8 471.72,-128.8"/>
<polygon fill="black" stroke="black" points="471.72,-132.3 481.72,-128.8 471.72,-125.3 471.72,-132.3"/>
</g>
</g>
</svg>
