<?xml version="1.0" encoding="UTF-8" standalone="no"?>
<!DOCTYPE svg PUBLIC "-//W3C//DTD SVG 1.1//EN"
 "http://www.w3.org/Graphics/SVG/1.1/DTD/svg11.dtd">
<!-- Generated by graphviz version 5.0.0 (20220707.1540)
 -->
<!-- Title: dependencies Pages: 1 -->
<svg width="658pt" height="247pt"
 viewBox="0.00 0.00 658.00 246.80" xmlns="http://www.w3.org/2000/svg" xmlns:xlink="http://www.w3.org/1999/xlink">
<g id="graph0" class="graph" transform="scale(1 1) rotate(0) translate(4 242.8)">
<title>dependencies</title>
<polygon fill="white" stroke="transparent" points="-4,4 -4,-242.8 654,-242.8 654,4 -4,4"/>
<text text-anchor="middle" x="325" y="-8.2" font-family="sans-serif" font-size="14.00">dependencies</text>
<g id="clust1" class="cluster">
<title>cluster_MensajeriaModuleCuenta</title>
<polygon fill="none" stroke="black" stroke-dasharray="1,5" points="8,-32.8 8,-230.8 642,-230.8 642,-32.8 8,-32.8"/>
</g>
<g id="clust4" class="cluster">
<title>cluster_MensajeriaModuleCuenta_exports</title>
<polygon fill="none" stroke="black" points="64,-170.8 64,-222.8 528,-222.8 528,-170.8 64,-170.8"/>
</g>
<g id="clust6" class="cluster">
<title>cluster_MensajeriaModuleCuenta_providers</title>
<polygon fill="none" stroke="black" points="16,-40.8 16,-92.8 634,-92.8 634,-40.8 16,-40.8"/>
</g>
<!-- AudioConferenciaCreadaPublisher  -->
<g id="node1" class="node">
<title>AudioConferenciaCreadaPublisher </title>
<polygon fill="#fb8072" stroke="black" points="519.94,-214.8 304.06,-214.8 304.06,-178.8 519.94,-178.8 519.94,-214.8"/>
<text text-anchor="middle" x="412" y="-192.6" font-family="Times,serif" font-size="14.00">AudioConferenciaCreadaPublisher </text>
</g>
<!-- VideoConferenciaCreadaPublisher  -->
<g id="node2" class="node">
<title>VideoConferenciaCreadaPublisher </title>
<polygon fill="#fb8072" stroke="black" points="286.15,-214.8 71.85,-214.8 71.85,-178.8 286.15,-178.8 286.15,-214.8"/>
<text text-anchor="middle" x="179" y="-192.6" font-family="Times,serif" font-size="14.00">VideoConferenciaCreadaPublisher </text>
</g>
<!-- MensajeriaModuleCuenta -->
<g id="node3" class="node">
<title>MensajeriaModuleCuenta</title>
<polygon fill="#8dd3c7" stroke="black" points="307.9,-149.8 304.9,-153.8 283.9,-153.8 280.9,-149.8 146.1,-149.8 146.1,-113.8 307.9,-113.8 307.9,-149.8"/>
<text text-anchor="middle" x="227" y="-127.6" font-family="Times,serif" font-size="14.00">MensajeriaModuleCuenta</text>
</g>
<!-- MensajeriaModuleCuenta&#45;&gt;AudioConferenciaCreadaPublisher  -->
<g id="edge1" class="edge">
<title>MensajeriaModuleCuenta&#45;&gt;AudioConferenciaCreadaPublisher </title>
<path fill="none" stroke="black" stroke-dasharray="5,2" d="M308.04,-137.8C310.35,-137.8 311.67,-137.8 311.67,-137.8 311.67,-137.8 311.67,-168.78 311.67,-168.78"/>
<polygon fill="black" stroke="black" points="308.17,-168.78 311.67,-178.78 315.17,-168.78 308.17,-168.78"/>
</g>
<!-- MensajeriaModuleCuenta&#45;&gt;VideoConferenciaCreadaPublisher  -->
<g id="edge2" class="edge">
<title>MensajeriaModuleCuenta&#45;&gt;VideoConferenciaCreadaPublisher </title>
<path fill="none" stroke="black" stroke-dasharray="5,2" d="M216.31,-149.91C216.31,-149.91 216.31,-168.79 216.31,-168.79"/>
<polygon fill="black" stroke="black" points="212.81,-168.79 216.31,-178.79 219.81,-168.79 212.81,-168.79"/>
</g>
<!-- AudioConferenciaCreadaPublisher -->
<g id="node4" class="node">
<title>AudioConferenciaCreadaPublisher</title>
<ellipse fill="#fdb462" stroke="black" cx="480" cy="-66.8" rx="146.38" ry="18"/>
<text text-anchor="middle" x="480" y="-62.6" font-family="Times,serif" font-size="14.00">AudioConferenciaCreadaPublisher</text>
</g>
<!-- AudioConferenciaCreadaPublisher&#45;&gt;MensajeriaModuleCuenta -->
<g id="edge3" class="edge">
<title>AudioConferenciaCreadaPublisher&#45;&gt;MensajeriaModuleCuenta</title>
<path fill="none" stroke="black" d="M426.76,-83.87C426.76,-101.29 426.76,-125.8 426.76,-125.8 426.76,-125.8 317.96,-125.8 317.96,-125.8"/>
<polygon fill="black" stroke="black" points="317.96,-122.3 307.96,-125.8 317.96,-129.3 317.96,-122.3"/>
</g>
<!-- VideoConferenciaCreadaPublisher -->
<g id="node5" class="node">
<title>VideoConferenciaCreadaPublisher</title>
<ellipse fill="#fdb462" stroke="black" cx="170" cy="-66.8" rx="145.8" ry="18"/>
<text text-anchor="middle" x="170" y="-62.6" font-family="Times,serif" font-size="14.00">VideoConferenciaCreadaPublisher</text>
</g>
<!-- VideoConferenciaCreadaPublisher&#45;&gt;MensajeriaModuleCuenta -->
<g id="edge4" class="edge">
<title>VideoConferenciaCreadaPublisher&#45;&gt;MensajeriaModuleCuenta</title>
<path fill="none" stroke="black" d="M227,-83.54C227,-83.54 227,-103.52 227,-103.52"/>
<polygon fill="black" stroke="black" points="223.5,-103.52 227,-113.52 230.5,-103.52 223.5,-103.52"/>
</g>
</g>
</svg>
