<?xml version="1.0" encoding="UTF-8" standalone="no"?>
<!DOCTYPE svg PUBLIC "-//W3C//DTD SVG 1.1//EN"
 "http://www.w3.org/Graphics/SVG/1.1/DTD/svg11.dtd">
<!-- Generated by graphviz version 5.0.0 (20220707.1540)
 -->
<!-- Title: dependencies Pages: 1 -->
<svg width="1396pt" height="247pt"
 viewBox="0.00 0.00 1396.00 246.80" xmlns="http://www.w3.org/2000/svg" xmlns:xlink="http://www.w3.org/1999/xlink">
<g id="graph0" class="graph" transform="scale(1 1) rotate(0) translate(4 242.8)">
<title>dependencies</title>
<polygon fill="white" stroke="transparent" points="-4,4 -4,-242.8 1392,-242.8 1392,4 -4,4"/>
<text text-anchor="middle" x="694" y="-8.2" font-family="sans-serif" font-size="14.00">dependencies</text>
<g id="clust1" class="cluster">
<title>cluster_MongoModuleCuenta</title>
<polygon fill="none" stroke="black" stroke-dasharray="1,5" points="8,-32.8 8,-230.8 1380,-230.8 1380,-32.8 8,-32.8"/>
</g>
<g id="clust4" class="cluster">
<title>cluster_MongoModuleCuenta_exports</title>
<polygon fill="none" stroke="black" points="107,-170.8 107,-222.8 1251,-222.8 1251,-170.8 107,-170.8"/>
</g>
<g id="clust6" class="cluster">
<title>cluster_MongoModuleCuenta_providers</title>
<polygon fill="none" stroke="black" points="16,-40.8 16,-92.8 1372,-92.8 1372,-40.8 16,-40.8"/>
</g>
<!-- AudioConferenciaMongoService  -->
<g id="node1" class="node">
<title>AudioConferenciaMongoService </title>
<polygon fill="#fb8072" stroke="black" points="1242.84,-214.8 1037.16,-214.8 1037.16,-178.8 1242.84,-178.8 1242.84,-214.8"/>
<text text-anchor="middle" x="1140" y="-192.6" font-family="Times,serif" font-size="14.00">AudioConferenciaMongoService </text>
</g>
<!-- AudioConferenciaRepository  -->
<g id="node2" class="node">
<title>AudioConferenciaRepository </title>
<polygon fill="#fb8072" stroke="black" points="1019.35,-214.8 834.65,-214.8 834.65,-178.8 1019.35,-178.8 1019.35,-214.8"/>
<text text-anchor="middle" x="927" y="-192.6" font-family="Times,serif" font-size="14.00">AudioConferenciaRepository </text>
</g>
<!-- ConfigService  -->
<g id="node3" class="node">
<title>ConfigService </title>
<polygon fill="#fb8072" stroke="black" points="817.37,-214.8 716.63,-214.8 716.63,-178.8 817.37,-178.8 817.37,-214.8"/>
<text text-anchor="middle" x="767" y="-192.6" font-family="Times,serif" font-size="14.00">ConfigService </text>
</g>
<!-- MongooseConfigService  -->
<g id="node4" class="node">
<title>MongooseConfigService </title>
<polygon fill="#fb8072" stroke="black" points="698.98,-214.8 539.02,-214.8 539.02,-178.8 698.98,-178.8 698.98,-214.8"/>
<text text-anchor="middle" x="619" y="-192.6" font-family="Times,serif" font-size="14.00">MongooseConfigService </text>
</g>
<!-- VideoConferenciaMongoService  -->
<g id="node5" class="node">
<title>VideoConferenciaMongoService </title>
<polygon fill="#fb8072" stroke="black" points="521.05,-214.8 316.95,-214.8 316.95,-178.8 521.05,-178.8 521.05,-214.8"/>
<text text-anchor="middle" x="419" y="-192.6" font-family="Times,serif" font-size="14.00">VideoConferenciaMongoService </text>
</g>
<!-- VideoConferenciaRepository  -->
<g id="node6" class="node">
<title>VideoConferenciaRepository </title>
<polygon fill="#fb8072" stroke="black" points="298.56,-214.8 115.44,-214.8 115.44,-178.8 298.56,-178.8 298.56,-214.8"/>
<text text-anchor="middle" x="207" y="-192.6" font-family="Times,serif" font-size="14.00">VideoConferenciaRepository </text>
</g>
<!-- MongoModuleCuenta -->
<g id="node7" class="node">
<title>MongoModuleCuenta</title>
<polygon fill="#8dd3c7" stroke="black" points="762.66,-149.8 759.66,-153.8 738.66,-153.8 735.66,-149.8 623.34,-149.8 623.34,-113.8 762.66,-113.8 762.66,-149.8"/>
<text text-anchor="middle" x="693" y="-127.6" font-family="Times,serif" font-size="14.00">MongoModuleCuenta</text>
</g>
<!-- MongoModuleCuenta&#45;&gt;AudioConferenciaMongoService  -->
<g id="edge1" class="edge">
<title>MongoModuleCuenta&#45;&gt;AudioConferenciaMongoService </title>
<path fill="none" stroke="black" stroke-dasharray="5,2" d="M762.75,-135.8C867.31,-135.8 1052.54,-135.8 1052.54,-135.8 1052.54,-135.8 1052.54,-168.5 1052.54,-168.5"/>
<polygon fill="black" stroke="black" points="1049.04,-168.5 1052.54,-178.5 1056.04,-168.5 1049.04,-168.5"/>
</g>
<!-- MongoModuleCuenta&#45;&gt;AudioConferenciaRepository  -->
<g id="edge2" class="edge">
<title>MongoModuleCuenta&#45;&gt;AudioConferenciaRepository </title>
<path fill="none" stroke="black" stroke-dasharray="5,2" d="M762.89,-142.8C831.84,-142.8 927,-142.8 927,-142.8 927,-142.8 927,-168.52 927,-168.52"/>
<polygon fill="black" stroke="black" points="923.5,-168.52 927,-178.52 930.5,-168.52 923.5,-168.52"/>
</g>
<!-- MongoModuleCuenta&#45;&gt;ConfigService  -->
<g id="edge3" class="edge">
<title>MongoModuleCuenta&#45;&gt;ConfigService </title>
<path fill="none" stroke="black" stroke-dasharray="5,2" d="M739.82,-149.91C739.82,-149.91 739.82,-168.79 739.82,-168.79"/>
<polygon fill="black" stroke="black" points="736.32,-168.79 739.82,-178.79 743.32,-168.79 736.32,-168.79"/>
</g>
<!-- MongoModuleCuenta&#45;&gt;MongooseConfigService  -->
<g id="edge4" class="edge">
<title>MongoModuleCuenta&#45;&gt;MongooseConfigService </title>
<path fill="none" stroke="black" stroke-dasharray="5,2" d="M660.96,-149.91C660.96,-149.91 660.96,-168.79 660.96,-168.79"/>
<polygon fill="black" stroke="black" points="657.46,-168.79 660.96,-178.79 664.46,-168.79 657.46,-168.79"/>
</g>
<!-- MongoModuleCuenta&#45;&gt;VideoConferenciaMongoService  -->
<g id="edge5" class="edge">
<title>MongoModuleCuenta&#45;&gt;VideoConferenciaMongoService </title>
<path fill="none" stroke="black" stroke-dasharray="5,2" d="M623.15,-142.8C541.97,-142.8 419,-142.8 419,-142.8 419,-142.8 419,-168.52 419,-168.52"/>
<polygon fill="black" stroke="black" points="415.5,-168.52 419,-178.52 422.5,-168.52 415.5,-168.52"/>
</g>
<!-- MongoModuleCuenta&#45;&gt;VideoConferenciaRepository  -->
<g id="edge6" class="edge">
<title>MongoModuleCuenta&#45;&gt;VideoConferenciaRepository </title>
<path fill="none" stroke="black" stroke-dasharray="5,2" d="M623.14,-135.8C508.87,-135.8 294.55,-135.8 294.55,-135.8 294.55,-135.8 294.55,-168.5 294.55,-168.5"/>
<polygon fill="black" stroke="black" points="291.05,-168.5 294.55,-178.5 298.05,-168.5 291.05,-168.5"/>
</g>
<!-- AudioConferenciaMongoService -->
<g id="node8" class="node">
<title>AudioConferenciaMongoService</title>
<ellipse fill="#fdb462" stroke="black" cx="1225" cy="-66.8" rx="139.44" ry="18"/>
<text text-anchor="middle" x="1225" y="-62.6" font-family="Times,serif" font-size="14.00">AudioConferenciaMongoService</text>
</g>
<!-- AudioConferenciaMongoService&#45;&gt;MongoModuleCuenta -->
<g id="edge7" class="edge">
<title>AudioConferenciaMongoService&#45;&gt;MongoModuleCuenta</title>
<path fill="none" stroke="black" d="M1164.22,-83.09C1164.22,-101.46 1164.22,-128.8 1164.22,-128.8 1164.22,-128.8 772.78,-128.8 772.78,-128.8"/>
<polygon fill="black" stroke="black" points="772.78,-125.3 762.78,-128.8 772.78,-132.3 772.78,-125.3"/>
</g>
<!-- AudioConferenciaRepository -->
<g id="node9" class="node">
<title>AudioConferenciaRepository</title>
<ellipse fill="#fdb462" stroke="black" cx="943" cy="-66.8" rx="124.99" ry="18"/>
<text text-anchor="middle" x="943" y="-62.6" font-family="Times,serif" font-size="14.00">AudioConferenciaRepository</text>
</g>
<!-- AudioConferenciaRepository&#45;&gt;MongoModuleCuenta -->
<g id="edge8" class="edge">
<title>AudioConferenciaRepository&#45;&gt;MongoModuleCuenta</title>
<path fill="none" stroke="black" d="M826.54,-73.54C826.54,-88.23 826.54,-121.8 826.54,-121.8 826.54,-121.8 772.9,-121.8 772.9,-121.8"/>
<polygon fill="black" stroke="black" points="772.9,-118.3 762.9,-121.8 772.9,-125.3 772.9,-118.3"/>
</g>
<!-- MongooseConfigService -->
<g id="node10" class="node">
<title>MongooseConfigService</title>
<ellipse fill="#fdb462" stroke="black" cx="693" cy="-66.8" rx="107.68" ry="18"/>
<text text-anchor="middle" x="693" y="-62.6" font-family="Times,serif" font-size="14.00">MongooseConfigService</text>
</g>
<!-- MongooseConfigService&#45;&gt;MongoModuleCuenta -->
<g id="edge9" class="edge">
<title>MongooseConfigService&#45;&gt;MongoModuleCuenta</title>
<path fill="none" stroke="black" d="M693,-84.91C693,-84.91 693,-103.79 693,-103.79"/>
<polygon fill="black" stroke="black" points="689.5,-103.79 693,-113.79 696.5,-103.79 689.5,-103.79"/>
</g>
<!-- VideoConferenciaMongoService -->
<g id="node11" class="node">
<title>VideoConferenciaMongoService</title>
<ellipse fill="#fdb462" stroke="black" cx="429" cy="-66.8" rx="138.86" ry="18"/>
<text text-anchor="middle" x="429" y="-62.6" font-family="Times,serif" font-size="14.00">VideoConferenciaMongoService</text>
</g>
<!-- VideoConferenciaMongoService&#45;&gt;MongoModuleCuenta -->
<g id="edge10" class="edge">
<title>VideoConferenciaMongoService&#45;&gt;MongoModuleCuenta</title>
<path fill="none" stroke="black" d="M553.47,-74.92C553.47,-90.21 553.47,-121.8 553.47,-121.8 553.47,-121.8 613.24,-121.8 613.24,-121.8"/>
<polygon fill="black" stroke="black" points="613.24,-125.3 623.24,-121.8 613.23,-118.3 613.24,-125.3"/>
</g>
<!-- VideoConferenciaRepository -->
<g id="node12" class="node">
<title>VideoConferenciaRepository</title>
<ellipse fill="#fdb462" stroke="black" cx="148" cy="-66.8" rx="124.41" ry="18"/>
<text text-anchor="middle" x="148" y="-62.6" font-family="Times,serif" font-size="14.00">VideoConferenciaRepository</text>
</g>
<!-- VideoConferenciaRepository&#45;&gt;MongoModuleCuenta -->
<g id="edge11" class="edge">
<title>VideoConferenciaRepository&#45;&gt;MongoModuleCuenta</title>
<path fill="none" stroke="black" d="M193.71,-83.74C193.71,-102.1 193.71,-128.8 193.71,-128.8 193.71,-128.8 613.31,-128.8 613.31,-128.8"/>
<polygon fill="black" stroke="black" points="613.31,-132.3 623.31,-128.8 613.31,-125.3 613.31,-132.3"/>
</g>
</g>
</svg>
