<?xml version="1.0" encoding="UTF-8" standalone="no"?>
<!DOCTYPE svg PUBLIC "-//W3C//DTD SVG 1.1//EN"
 "http://www.w3.org/Graphics/SVG/1.1/DTD/svg11.dtd">
<!-- Generated by graphviz version 5.0.0 (20220707.1540)
 -->
<!-- Title: dependencies Pages: 1 -->
<svg width="1006pt" height="174pt"
 viewBox="0.00 0.00 1006.00 173.80" xmlns="http://www.w3.org/2000/svg" xmlns:xlink="http://www.w3.org/1999/xlink">
<g id="graph0" class="graph" transform="scale(1 1) rotate(0) translate(4 169.8)">
<title>dependencies</title>
<polygon fill="white" stroke="transparent" points="-4,4 -4,-169.8 1002,-169.8 1002,4 -4,4"/>
<text text-anchor="middle" x="499" y="-8.2" font-family="sans-serif" font-size="14.00">dependencies</text>
<g id="clust1" class="cluster">
<title>cluster_UsuarioModule</title>
<polygon fill="none" stroke="black" stroke-dasharray="1,5" points="8,-32.8 8,-157.8 990,-157.8 990,-32.8 8,-32.8"/>
</g>
<g id="clust3" class="cluster">
<title>cluster_UsuarioModule_imports</title>
<polygon fill="none" stroke="black" points="726,-40.8 726,-92.8 982,-92.8 982,-40.8 726,-40.8"/>
</g>
<g id="clust6" class="cluster">
<title>cluster_UsuarioModule_providers</title>
<polygon fill="none" stroke="black" points="16,-40.8 16,-92.8 718,-92.8 718,-40.8 16,-40.8"/>
</g>
<!-- MensajeriaModule -->
<g id="node1" class="node">
<title>MensajeriaModule</title>
<polygon fill="#8dd3c7" stroke="black" points="973.75,-84.8 970.75,-88.8 949.75,-88.8 946.75,-84.8 852.25,-84.8 852.25,-48.8 973.75,-48.8 973.75,-84.8"/>
<text text-anchor="middle" x="913" y="-62.6" font-family="Times,serif" font-size="14.00">MensajeriaModule</text>
</g>
<!-- UsuarioModule -->
<g id="node3" class="node">
<title>UsuarioModule</title>
<polygon fill="#8dd3c7" stroke="black" points="584.88,-149.8 581.88,-153.8 560.88,-153.8 557.88,-149.8 481.12,-149.8 481.12,-113.8 584.88,-113.8 584.88,-149.8"/>
<text text-anchor="middle" x="533" y="-127.6" font-family="Times,serif" font-size="14.00">UsuarioModule</text>
</g>
<!-- MensajeriaModule&#45;&gt;UsuarioModule -->
<g id="edge1" class="edge">
<title>MensajeriaModule&#45;&gt;UsuarioModule</title>
<path fill="none" stroke="black" d="M913,-85.08C913,-106.12 913,-137.8 913,-137.8 913,-137.8 595.04,-137.8 595.04,-137.8"/>
<polygon fill="black" stroke="black" points="595.04,-134.3 585.04,-137.8 595.04,-141.3 595.04,-134.3"/>
</g>
<!-- MongoModule -->
<g id="node2" class="node">
<title>MongoModule</title>
<polygon fill="#8dd3c7" stroke="black" points="834,-84.8 831,-88.8 810,-88.8 807,-84.8 734,-84.8 734,-48.8 834,-48.8 834,-84.8"/>
<text text-anchor="middle" x="784" y="-62.6" font-family="Times,serif" font-size="14.00">MongoModule</text>
</g>
<!-- MongoModule&#45;&gt;UsuarioModule -->
<g id="edge2" class="edge">
<title>MongoModule&#45;&gt;UsuarioModule</title>
<path fill="none" stroke="black" d="M784,-84.82C784,-102.17 784,-125.8 784,-125.8 784,-125.8 595.01,-125.8 595.01,-125.8"/>
<polygon fill="black" stroke="black" points="595.01,-122.3 585.01,-125.8 595.01,-129.3 595.01,-122.3"/>
</g>
<!-- EmpresaRepository -->
<g id="node4" class="node">
<title>EmpresaRepository</title>
<ellipse fill="#fdb462" stroke="black" cx="623" cy="-66.8" rx="87.41" ry="18"/>
<text text-anchor="middle" x="623" y="-62.6" font-family="Times,serif" font-size="14.00">EmpresaRepository</text>
</g>
<!-- EmpresaRepository&#45;&gt;UsuarioModule -->
<g id="edge3" class="edge">
<title>EmpresaRepository&#45;&gt;UsuarioModule</title>
<path fill="none" stroke="black" d="M560.37,-79.33C560.37,-79.33 560.37,-103.65 560.37,-103.65"/>
<polygon fill="black" stroke="black" points="556.87,-103.65 560.37,-113.65 563.87,-103.65 556.87,-103.65"/>
</g>
<!-- EmpresaService -->
<g id="node5" class="node">
<title>EmpresaService</title>
<ellipse fill="#fdb462" stroke="black" cx="444" cy="-66.8" rx="73.56" ry="18"/>
<text text-anchor="middle" x="444" y="-62.6" font-family="Times,serif" font-size="14.00">EmpresaService</text>
</g>
<!-- EmpresaService&#45;&gt;UsuarioModule -->
<g id="edge4" class="edge">
<title>EmpresaService&#45;&gt;UsuarioModule</title>
<path fill="none" stroke="black" d="M499.42,-78.72C499.42,-78.72 499.42,-103.57 499.42,-103.57"/>
<polygon fill="black" stroke="black" points="495.92,-103.57 499.42,-113.57 502.92,-103.57 495.92,-103.57"/>
</g>
<!-- PersonaRepository -->
<g id="node6" class="node">
<title>PersonaRepository</title>
<ellipse fill="#fdb462" stroke="black" cx="268" cy="-66.8" rx="83.98" ry="18"/>
<text text-anchor="middle" x="268" y="-62.6" font-family="Times,serif" font-size="14.00">PersonaRepository</text>
</g>
<!-- PersonaRepository&#45;&gt;UsuarioModule -->
<g id="edge5" class="edge">
<title>PersonaRepository&#45;&gt;UsuarioModule</title>
<path fill="none" stroke="black" d="M268,-84.82C268,-102.17 268,-125.8 268,-125.8 268,-125.8 470.96,-125.8 470.96,-125.8"/>
<polygon fill="black" stroke="black" points="470.96,-129.3 480.96,-125.8 470.96,-122.3 470.96,-129.3"/>
</g>
<!-- PersonaService -->
<g id="node7" class="node">
<title>PersonaService</title>
<ellipse fill="#fdb462" stroke="black" cx="95" cy="-66.8" rx="70.63" ry="18"/>
<text text-anchor="middle" x="95" y="-62.6" font-family="Times,serif" font-size="14.00">PersonaService</text>
</g>
<!-- PersonaService&#45;&gt;UsuarioModule -->
<g id="edge6" class="edge">
<title>PersonaService&#45;&gt;UsuarioModule</title>
<path fill="none" stroke="black" d="M95,-85.08C95,-106.12 95,-137.8 95,-137.8 95,-137.8 471.04,-137.8 471.04,-137.8"/>
<polygon fill="black" stroke="black" points="471.04,-141.3 481.04,-137.8 471.04,-134.3 471.04,-141.3"/>
</g>
</g>
</svg>
