<?xml version="1.0" encoding="UTF-8" standalone="no"?>
<!DOCTYPE svg PUBLIC "-//W3C//DTD SVG 1.1//EN"
 "http://www.w3.org/Graphics/SVG/1.1/DTD/svg11.dtd">
<!-- Generated by graphviz version 5.0.0 (20220707.1540)
 -->
<!-- Title: dependencies Pages: 1 -->
<svg width="916pt" height="174pt"
 viewBox="0.00 0.00 916.00 173.80" xmlns="http://www.w3.org/2000/svg" xmlns:xlink="http://www.w3.org/1999/xlink">
<g id="graph0" class="graph" transform="scale(1 1) rotate(0) translate(4 169.8)">
<title>dependencies</title>
<polygon fill="white" stroke="transparent" points="-4,4 -4,-169.8 912,-169.8 912,4 -4,4"/>
<text text-anchor="middle" x="454" y="-8.2" font-family="sans-serif" font-size="14.00">dependencies</text>
<g id="clust1" class="cluster">
<title>cluster_CuentaModule</title>
<polygon fill="none" stroke="black" stroke-dasharray="1,5" points="8,-32.8 8,-157.8 900,-157.8 900,-32.8 8,-32.8"/>
</g>
<g id="clust3" class="cluster">
<title>cluster_CuentaModule_imports</title>
<polygon fill="none" stroke="black" points="556,-40.8 556,-92.8 892,-92.8 892,-40.8 556,-40.8"/>
</g>
<g id="clust6" class="cluster">
<title>cluster_CuentaModule_providers</title>
<polygon fill="none" stroke="black" points="16,-40.8 16,-92.8 548,-92.8 548,-40.8 16,-40.8"/>
</g>
<!-- MensajeriaModuleCuenta -->
<g id="node1" class="node">
<title>MensajeriaModuleCuenta</title>
<polygon fill="#8dd3c7" stroke="black" points="883.9,-84.8 880.9,-88.8 859.9,-88.8 856.9,-84.8 722.1,-84.8 722.1,-48.8 883.9,-48.8 883.9,-84.8"/>
<text text-anchor="middle" x="803" y="-62.6" font-family="Times,serif" font-size="14.00">MensajeriaModuleCuenta</text>
</g>
<!-- CuentaModule -->
<g id="node3" class="node">
<title>CuentaModule</title>
<polygon fill="#8dd3c7" stroke="black" points="573.71,-149.8 570.71,-153.8 549.71,-153.8 546.71,-149.8 474.29,-149.8 474.29,-113.8 573.71,-113.8 573.71,-149.8"/>
<text text-anchor="middle" x="524" y="-127.6" font-family="Times,serif" font-size="14.00">CuentaModule</text>
</g>
<!-- MensajeriaModuleCuenta&#45;&gt;CuentaModule -->
<g id="edge1" class="edge">
<title>MensajeriaModuleCuenta&#45;&gt;CuentaModule</title>
<path fill="none" stroke="black" d="M803,-84.91C803,-104.14 803,-131.8 803,-131.8 803,-131.8 583.88,-131.8 583.88,-131.8"/>
<polygon fill="black" stroke="black" points="583.88,-128.3 573.88,-131.8 583.88,-135.3 583.88,-128.3"/>
</g>
<!-- MongoModuleCuenta -->
<g id="node2" class="node">
<title>MongoModuleCuenta</title>
<polygon fill="#8dd3c7" stroke="black" points="703.66,-84.8 700.66,-88.8 679.66,-88.8 676.66,-84.8 564.34,-84.8 564.34,-48.8 703.66,-48.8 703.66,-84.8"/>
<text text-anchor="middle" x="634" y="-62.6" font-family="Times,serif" font-size="14.00">MongoModuleCuenta</text>
</g>
<!-- MongoModuleCuenta&#45;&gt;CuentaModule -->
<g id="edge2" class="edge">
<title>MongoModuleCuenta&#45;&gt;CuentaModule</title>
<path fill="none" stroke="black" d="M568.89,-84.91C568.89,-84.91 568.89,-103.79 568.89,-103.79"/>
<polygon fill="black" stroke="black" points="565.39,-103.79 568.89,-113.79 572.39,-103.79 565.39,-103.79"/>
</g>
<!-- AudioConferenciaRepository -->
<g id="node4" class="node">
<title>AudioConferenciaRepository</title>
<ellipse fill="#fdb462" stroke="black" cx="415" cy="-66.8" rx="124.99" ry="18"/>
<text text-anchor="middle" x="415" y="-62.6" font-family="Times,serif" font-size="14.00">AudioConferenciaRepository</text>
</g>
<!-- AudioConferenciaRepository&#45;&gt;CuentaModule -->
<g id="edge3" class="edge">
<title>AudioConferenciaRepository&#45;&gt;CuentaModule</title>
<path fill="none" stroke="black" d="M507.07,-79.03C507.07,-79.03 507.07,-103.48 507.07,-103.48"/>
<polygon fill="black" stroke="black" points="503.57,-103.48 507.07,-113.48 510.57,-103.48 503.57,-103.48"/>
</g>
<!-- VideoConferenciaRepository -->
<g id="node5" class="node">
<title>VideoConferenciaRepository</title>
<ellipse fill="#fdb462" stroke="black" cx="148" cy="-66.8" rx="124.41" ry="18"/>
<text text-anchor="middle" x="148" y="-62.6" font-family="Times,serif" font-size="14.00">VideoConferenciaRepository</text>
</g>
<!-- VideoConferenciaRepository&#45;&gt;CuentaModule -->
<g id="edge4" class="edge">
<title>VideoConferenciaRepository&#45;&gt;CuentaModule</title>
<path fill="none" stroke="black" d="M148,-84.91C148,-104.14 148,-131.8 148,-131.8 148,-131.8 464.07,-131.8 464.07,-131.8"/>
<polygon fill="black" stroke="black" points="464.07,-135.3 474.07,-131.8 464.07,-128.3 464.07,-135.3"/>
</g>
</g>
</svg>
