<?xml version="1.0" encoding="UTF-8" standalone="no"?>
<!DOCTYPE svg PUBLIC "-//W3C//DTD SVG 1.1//EN"
 "http://www.w3.org/Graphics/SVG/1.1/DTD/svg11.dtd">
<!-- Generated by graphviz version 5.0.0 (20220707.1540)
 -->
<!-- Title: dependencies Pages: 1 -->
<svg width="1529pt" height="247pt"
 viewBox="0.00 0.00 1529.00 246.80" xmlns="http://www.w3.org/2000/svg" xmlns:xlink="http://www.w3.org/1999/xlink">
<g id="graph0" class="graph" transform="scale(1 1) rotate(0) translate(4 242.8)">
<title>dependencies</title>
<polygon fill="white" stroke="transparent" points="-4,4 -4,-242.8 1525,-242.8 1525,4 -4,4"/>
<text text-anchor="middle" x="760.5" y="-8.2" font-family="sans-serif" font-size="14.00">dependencies</text>
<g id="clust1" class="cluster">
<title>cluster_MensajeriaModule</title>
<polygon fill="none" stroke="black" stroke-dasharray="1,5" points="8,-32.8 8,-230.8 1513,-230.8 1513,-32.8 8,-32.8"/>
</g>
<g id="clust4" class="cluster">
<title>cluster_MensajeriaModule_exports</title>
<polygon fill="none" stroke="black" points="181,-170.8 181,-222.8 1311,-222.8 1311,-170.8 181,-170.8"/>
</g>
<g id="clust6" class="cluster">
<title>cluster_MensajeriaModule_providers</title>
<polygon fill="none" stroke="black" points="16,-40.8 16,-92.8 1505,-92.8 1505,-40.8 16,-40.8"/>
</g>
<!-- EmpresaBuscadaPublisher  -->
<g id="node1" class="node">
<title>EmpresaBuscadaPublisher </title>
<polygon fill="#fb8072" stroke="black" points="1303.3,-214.8 1134.7,-214.8 1134.7,-178.8 1303.3,-178.8 1303.3,-214.8"/>
<text text-anchor="middle" x="1219" y="-192.6" font-family="Times,serif" font-size="14.00">EmpresaBuscadaPublisher </text>
</g>
<!-- EmpresaRegistradaPublisher  -->
<g id="node2" class="node">
<title>EmpresaRegistradaPublisher </title>
<polygon fill="#fb8072" stroke="black" points="1116.74,-214.8 935.26,-214.8 935.26,-178.8 1116.74,-178.8 1116.74,-214.8"/>
<text text-anchor="middle" x="1026" y="-192.6" font-family="Times,serif" font-size="14.00">EmpresaRegistradaPublisher </text>
</g>
<!-- PersonaBuscadaPublisher  -->
<g id="node3" class="node">
<title>PersonaBuscadaPublisher </title>
<polygon fill="#fb8072" stroke="black" points="917.14,-214.8 752.86,-214.8 752.86,-178.8 917.14,-178.8 917.14,-214.8"/>
<text text-anchor="middle" x="835" y="-192.6" font-family="Times,serif" font-size="14.00">PersonaBuscadaPublisher </text>
</g>
<!-- PersonaEditadaPublisher  -->
<g id="node4" class="node">
<title>PersonaEditadaPublisher </title>
<polygon fill="#fb8072" stroke="black" points="734.97,-214.8 575.03,-214.8 575.03,-178.8 734.97,-178.8 734.97,-214.8"/>
<text text-anchor="middle" x="655" y="-192.6" font-family="Times,serif" font-size="14.00">PersonaEditadaPublisher </text>
</g>
<!-- PersonaEliminadaPublisher  -->
<g id="node5" class="node">
<title>PersonaEliminadaPublisher </title>
<polygon fill="#fb8072" stroke="black" points="557.25,-214.8 382.75,-214.8 382.75,-178.8 557.25,-178.8 557.25,-214.8"/>
<text text-anchor="middle" x="470" y="-192.6" font-family="Times,serif" font-size="14.00">PersonaEliminadaPublisher </text>
</g>
<!-- PersonaRegistradaPublisher  -->
<g id="node6" class="node">
<title>PersonaRegistradaPublisher </title>
<polygon fill="#fb8072" stroke="black" points="365.08,-214.8 188.92,-214.8 188.92,-178.8 365.08,-178.8 365.08,-214.8"/>
<text text-anchor="middle" x="277" y="-192.6" font-family="Times,serif" font-size="14.00">PersonaRegistradaPublisher </text>
</g>
<!-- MensajeriaModule -->
<g id="node7" class="node">
<title>MensajeriaModule</title>
<polygon fill="#8dd3c7" stroke="black" points="805.75,-149.8 802.75,-153.8 781.75,-153.8 778.75,-149.8 684.25,-149.8 684.25,-113.8 805.75,-113.8 805.75,-149.8"/>
<text text-anchor="middle" x="745" y="-127.6" font-family="Times,serif" font-size="14.00">MensajeriaModule</text>
</g>
<!-- MensajeriaModule&#45;&gt;EmpresaBuscadaPublisher  -->
<g id="edge1" class="edge">
<title>MensajeriaModule&#45;&gt;EmpresaBuscadaPublisher </title>
<path fill="none" stroke="black" stroke-dasharray="5,2" d="M805.83,-135.8C928.21,-135.8 1192.6,-135.8 1192.6,-135.8 1192.6,-135.8 1192.6,-168.5 1192.6,-168.5"/>
<polygon fill="black" stroke="black" points="1189.1,-168.5 1192.6,-178.5 1196.1,-168.5 1189.1,-168.5"/>
</g>
<!-- MensajeriaModule&#45;&gt;EmpresaRegistradaPublisher  -->
<g id="edge2" class="edge">
<title>MensajeriaModule&#45;&gt;EmpresaRegistradaPublisher </title>
<path fill="none" stroke="black" stroke-dasharray="5,2" d="M805.91,-142.8C869.97,-142.8 961.59,-142.8 961.59,-142.8 961.59,-142.8 961.59,-168.52 961.59,-168.52"/>
<polygon fill="black" stroke="black" points="958.09,-168.52 961.59,-178.52 965.09,-168.52 958.09,-168.52"/>
</g>
<!-- MensajeriaModule&#45;&gt;PersonaBuscadaPublisher  -->
<g id="edge3" class="edge">
<title>MensajeriaModule&#45;&gt;PersonaBuscadaPublisher </title>
<path fill="none" stroke="black" stroke-dasharray="5,2" d="M779.4,-149.91C779.4,-149.91 779.4,-168.79 779.4,-168.79"/>
<polygon fill="black" stroke="black" points="775.9,-168.79 779.4,-178.79 782.9,-168.79 775.9,-168.79"/>
</g>
<!-- MensajeriaModule&#45;&gt;PersonaEditadaPublisher  -->
<g id="edge4" class="edge">
<title>MensajeriaModule&#45;&gt;PersonaEditadaPublisher </title>
<path fill="none" stroke="black" stroke-dasharray="5,2" d="M709.43,-149.91C709.43,-149.91 709.43,-168.79 709.43,-168.79"/>
<polygon fill="black" stroke="black" points="705.93,-168.79 709.43,-178.79 712.93,-168.79 705.93,-168.79"/>
</g>
<!-- MensajeriaModule&#45;&gt;PersonaEliminadaPublisher  -->
<g id="edge5" class="edge">
<title>MensajeriaModule&#45;&gt;PersonaEliminadaPublisher </title>
<path fill="none" stroke="black" stroke-dasharray="5,2" d="M683.99,-142.8C625.25,-142.8 545.27,-142.8 545.27,-142.8 545.27,-142.8 545.27,-168.52 545.27,-168.52"/>
<polygon fill="black" stroke="black" points="541.77,-168.52 545.27,-178.52 548.77,-168.52 541.77,-168.52"/>
</g>
<!-- MensajeriaModule&#45;&gt;PersonaRegistradaPublisher  -->
<g id="edge6" class="edge">
<title>MensajeriaModule&#45;&gt;PersonaRegistradaPublisher </title>
<path fill="none" stroke="black" stroke-dasharray="5,2" d="M684.05,-135.8C567.12,-135.8 322.75,-135.8 322.75,-135.8 322.75,-135.8 322.75,-168.5 322.75,-168.5"/>
<polygon fill="black" stroke="black" points="319.26,-168.5 322.75,-178.5 326.26,-168.5 319.26,-168.5"/>
</g>
<!-- EmpresaBuscadaPublisher -->
<g id="node8" class="node">
<title>EmpresaBuscadaPublisher</title>
<ellipse fill="#fdb462" stroke="black" cx="1383" cy="-66.8" rx="114.04" ry="18"/>
<text text-anchor="middle" x="1383" y="-62.6" font-family="Times,serif" font-size="14.00">EmpresaBuscadaPublisher</text>
</g>
<!-- EmpresaBuscadaPublisher&#45;&gt;MensajeriaModule -->
<g id="edge7" class="edge">
<title>EmpresaBuscadaPublisher&#45;&gt;MensajeriaModule</title>
<path fill="none" stroke="black" d="M1286.19,-76.49C1286.19,-93.93 1286.19,-128.8 1286.19,-128.8 1286.19,-128.8 815.77,-128.8 815.77,-128.8"/>
<polygon fill="black" stroke="black" points="815.77,-125.3 805.77,-128.8 815.77,-132.3 815.77,-125.3"/>
</g>
<!-- EmpresaRegistradaPublisher -->
<g id="node9" class="node">
<title>EmpresaRegistradaPublisher</title>
<ellipse fill="#fdb462" stroke="black" cx="1128" cy="-66.8" rx="122.7" ry="18"/>
<text text-anchor="middle" x="1128" y="-62.6" font-family="Times,serif" font-size="14.00">EmpresaRegistradaPublisher</text>
</g>
<!-- EmpresaRegistradaPublisher&#45;&gt;MensajeriaModule -->
<g id="edge8" class="edge">
<title>EmpresaRegistradaPublisher&#45;&gt;MensajeriaModule</title>
<path fill="none" stroke="black" d="M1061.01,-82.12C1061.01,-98.39 1061.01,-121.8 1061.01,-121.8 1061.01,-121.8 815.93,-121.8 815.93,-121.8"/>
<polygon fill="black" stroke="black" points="815.93,-118.3 805.93,-121.8 815.93,-125.3 815.93,-118.3"/>
</g>
<!-- PersonaBuscadaPublisher -->
<g id="node10" class="node">
<title>PersonaBuscadaPublisher</title>
<ellipse fill="#fdb462" stroke="black" cx="877" cy="-66.8" rx="110.62" ry="18"/>
<text text-anchor="middle" x="877" y="-62.6" font-family="Times,serif" font-size="14.00">PersonaBuscadaPublisher</text>
</g>
<!-- PersonaBuscadaPublisher&#45;&gt;MensajeriaModule -->
<g id="edge9" class="edge">
<title>PersonaBuscadaPublisher&#45;&gt;MensajeriaModule</title>
<path fill="none" stroke="black" d="M786.03,-77.24C786.03,-77.24 786.03,-103.77 786.03,-103.77"/>
<polygon fill="black" stroke="black" points="782.53,-103.77 786.03,-113.77 789.53,-103.77 782.53,-103.77"/>
</g>
<!-- PersonaEditadaPublisher -->
<g id="node11" class="node">
<title>PersonaEditadaPublisher</title>
<ellipse fill="#fdb462" stroke="black" cx="641" cy="-66.8" rx="107.67" ry="18"/>
<text text-anchor="middle" x="641" y="-62.6" font-family="Times,serif" font-size="14.00">PersonaEditadaPublisher</text>
</g>
<!-- PersonaEditadaPublisher&#45;&gt;MensajeriaModule -->
<g id="edge10" class="edge">
<title>PersonaEditadaPublisher&#45;&gt;MensajeriaModule</title>
<path fill="none" stroke="black" d="M716.36,-79.95C716.36,-79.95 716.36,-103.49 716.36,-103.49"/>
<polygon fill="black" stroke="black" points="712.86,-103.49 716.36,-113.49 719.86,-103.49 712.86,-103.49"/>
</g>
<!-- PersonaEliminadaPublisher -->
<g id="node12" class="node">
<title>PersonaEliminadaPublisher</title>
<ellipse fill="#fdb462" stroke="black" cx="398" cy="-66.8" rx="117.56" ry="18"/>
<text text-anchor="middle" x="398" y="-62.6" font-family="Times,serif" font-size="14.00">PersonaEliminadaPublisher</text>
</g>
<!-- PersonaEliminadaPublisher&#45;&gt;MensajeriaModule -->
<g id="edge11" class="edge">
<title>PersonaEliminadaPublisher&#45;&gt;MensajeriaModule</title>
<path fill="none" stroke="black" d="M449.33,-83C449.33,-99.23 449.33,-121.8 449.33,-121.8 449.33,-121.8 674.1,-121.8 674.1,-121.8"/>
<polygon fill="black" stroke="black" points="674.1,-125.3 684.1,-121.8 674.1,-118.3 674.1,-125.3"/>
</g>
<!-- PersonaRegistradaPublisher -->
<g id="node13" class="node">
<title>PersonaRegistradaPublisher</title>
<ellipse fill="#fdb462" stroke="black" cx="143" cy="-66.8" rx="119.28" ry="18"/>
<text text-anchor="middle" x="143" y="-62.6" font-family="Times,serif" font-size="14.00">PersonaRegistradaPublisher</text>
</g>
<!-- PersonaRegistradaPublisher&#45;&gt;MensajeriaModule -->
<g id="edge12" class="edge">
<title>PersonaRegistradaPublisher&#45;&gt;MensajeriaModule</title>
<path fill="none" stroke="black" d="M225.55,-79.95C225.55,-98.15 225.55,-128.8 225.55,-128.8 225.55,-128.8 674.14,-128.8 674.14,-128.8"/>
<polygon fill="black" stroke="black" points="674.14,-132.3 684.14,-128.8 674.14,-125.3 674.14,-132.3"/>
</g>
</g>
</svg>
