<?xml version="1.0" encoding="UTF-8" standalone="no"?>
<!DOCTYPE svg PUBLIC "-//W3C//DTD SVG 1.1//EN"
 "http://www.w3.org/Graphics/SVG/1.1/DTD/svg11.dtd">
<!-- Generated by graphviz version 5.0.0 (20220707.1540)
 -->
<!-- Title: dependencies Pages: 1 -->
<svg width="6086pt" height="253pt"
 viewBox="0.00 0.00 6086.00 252.80" xmlns="http://www.w3.org/2000/svg" xmlns:xlink="http://www.w3.org/1999/xlink">
<g id="graph0" class="graph" transform="scale(1 1) rotate(0) translate(4 248.8)">
<title>dependencies</title>
<polygon fill="white" stroke="transparent" points="-4,4 -4,-248.8 6082,-248.8 6082,4 -4,4"/>
<text text-anchor="middle" x="3039" y="-8.2" font-family="sans-serif" font-size="14.00">dependencies</text>
<g id="clust1" class="cluster">
<title>cluster_CuentaModule</title>
<polygon fill="none" stroke="black" stroke-dasharray="1,5" points="2938,-32.8 2938,-228.8 3486,-228.8 3486,-32.8 2938,-32.8"/>
</g>
<g id="clust3" class="cluster">
<title>cluster_CuentaModule_imports</title>
<polygon fill="none" stroke="black" points="3142,-108.8 3142,-160.8 3478,-160.8 3478,-108.8 3142,-108.8"/>
</g>
<g id="clust6" class="cluster">
<title>cluster_CuentaModule_providers</title>
<polygon fill="none" stroke="black" points="2946,-40.8 2946,-92.8 3478,-92.8 3478,-40.8 2946,-40.8"/>
</g>
<g id="clust7" class="cluster">
<title>cluster_MensajeriaModule</title>
<polygon fill="none" stroke="black" stroke-dasharray="1,5" points="8,-32.8 8,-236.8 1514,-236.8 1514,-32.8 8,-32.8"/>
</g>
<g id="clust10" class="cluster">
<title>cluster_MensajeriaModule_exports</title>
<polygon fill="none" stroke="black" points="298,-176.8 298,-228.8 1428,-228.8 1428,-176.8 298,-176.8"/>
</g>
<g id="clust12" class="cluster">
<title>cluster_MensajeriaModule_providers</title>
<polygon fill="none" stroke="black" points="16,-40.8 16,-92.8 1506,-92.8 1506,-40.8 16,-40.8"/>
</g>
<g id="clust13" class="cluster">
<title>cluster_MensajeriaModuleCuenta</title>
<polygon fill="none" stroke="black" stroke-dasharray="1,5" points="3494,-168.8 3494,-236.8 4600,-236.8 4600,-168.8 3494,-168.8"/>
</g>
<g id="clust16" class="cluster">
<title>cluster_MensajeriaModuleCuenta_exports</title>
<polygon fill="none" stroke="black" points="4128,-176.8 4128,-228.8 4592,-228.8 4592,-176.8 4128,-176.8"/>
</g>
<g id="clust18" class="cluster">
<title>cluster_MensajeriaModuleCuenta_providers</title>
<polygon fill="none" stroke="black" points="3502,-176.8 3502,-228.8 4120,-228.8 4120,-176.8 3502,-176.8"/>
</g>
<g id="clust19" class="cluster">
<title>cluster_MongoModule</title>
<polygon fill="none" stroke="black" stroke-dasharray="1,5" points="1869,-32.8 1869,-236.8 2930,-236.8 2930,-32.8 1869,-32.8"/>
</g>
<g id="clust22" class="cluster">
<title>cluster_MongoModule_exports</title>
<polygon fill="none" stroke="black" points="1999,-176.8 1999,-228.8 2918,-228.8 2918,-176.8 1999,-176.8"/>
</g>
<g id="clust24" class="cluster">
<title>cluster_MongoModule_providers</title>
<polygon fill="none" stroke="black" points="1877,-40.8 1877,-92.8 2922,-92.8 2922,-40.8 1877,-40.8"/>
</g>
<g id="clust25" class="cluster">
<title>cluster_MongoModuleCuenta</title>
<polygon fill="none" stroke="black" stroke-dasharray="1,5" points="4608,-168.8 4608,-236.8 6070,-236.8 6070,-168.8 4608,-168.8"/>
</g>
<g id="clust28" class="cluster">
<title>cluster_MongoModuleCuenta_exports</title>
<polygon fill="none" stroke="black" points="5214,-176.8 5214,-228.8 6062,-228.8 6062,-176.8 5214,-176.8"/>
</g>
<g id="clust30" class="cluster">
<title>cluster_MongoModuleCuenta_providers</title>
<polygon fill="none" stroke="black" points="4616,-176.8 4616,-228.8 5206,-228.8 5206,-176.8 4616,-176.8"/>
</g>
<g id="clust31" class="cluster">
<title>cluster_UsuarioModule</title>
<polygon fill="none" stroke="black" stroke-dasharray="1,5" points="1522,-100.8 1522,-228.8 1861,-228.8 1861,-100.8 1522,-100.8"/>
</g>
<g id="clust36" class="cluster">
<title>cluster_UsuarioModule_providers</title>
<polygon fill="none" stroke="black" points="1530,-108.8 1530,-160.8 1853,-160.8 1853,-108.8 1530,-108.8"/>
</g>
<!-- MensajeriaModuleCuenta -->
<g id="node1" class="node">
<title>MensajeriaModuleCuenta</title>
<polygon fill="#8dd3c7" stroke="black" points="3311.9,-152.8 3308.9,-156.8 3287.9,-156.8 3284.9,-152.8 3150.1,-152.8 3150.1,-116.8 3311.9,-116.8 3311.9,-152.8"/>
<text text-anchor="middle" x="3231" y="-130.6" font-family="Times,serif" font-size="14.00">MensajeriaModuleCuenta</text>
</g>
<!-- CuentaModule -->
<g id="node3" class="node">
<title>CuentaModule</title>
<polygon fill="#8dd3c7" stroke="black" points="3230.71,-220.8 3227.71,-224.8 3206.71,-224.8 3203.71,-220.8 3131.29,-220.8 3131.29,-184.8 3230.71,-184.8 3230.71,-220.8"/>
<text text-anchor="middle" x="3181" y="-198.6" font-family="Times,serif" font-size="14.00">CuentaModule</text>
</g>
<!-- MensajeriaModuleCuenta&#45;&gt;CuentaModule -->
<g id="edge1" class="edge">
<title>MensajeriaModuleCuenta&#45;&gt;CuentaModule</title>
<path fill="none" stroke="black" d="M3190.45,-153.02C3190.45,-153.02 3190.45,-174.53 3190.45,-174.53"/>
<polygon fill="black" stroke="black" points="3186.95,-174.53 3190.45,-184.53 3193.95,-174.53 3186.95,-174.53"/>
</g>
<!-- AudioConferenciaCreadaPublisher  -->
<g id="node19" class="node">
<title>AudioConferenciaCreadaPublisher </title>
<polygon fill="#fb8072" stroke="black" points="4583.94,-220.8 4368.06,-220.8 4368.06,-184.8 4583.94,-184.8 4583.94,-220.8"/>
<text text-anchor="middle" x="4476" y="-198.6" font-family="Times,serif" font-size="14.00">AudioConferenciaCreadaPublisher </text>
</g>
<!-- MensajeriaModuleCuenta&#45;&gt;AudioConferenciaCreadaPublisher  -->
<g id="edge17" class="edge">
<title>MensajeriaModuleCuenta&#45;&gt;AudioConferenciaCreadaPublisher </title>
<path fill="none" stroke="black" stroke-dasharray="5,2" d="M3263.04,-152.92C3263.04,-155.77 3263.04,-157.8 3263.04,-157.8 3263.04,-157.8 4476,-157.8 4476,-157.8 4476,-157.8 4476,-174.76 4476,-174.76"/>
<polygon fill="black" stroke="black" points="4472.5,-174.76 4476,-184.76 4479.5,-174.76 4472.5,-174.76"/>
</g>
<!-- VideoConferenciaCreadaPublisher  -->
<g id="node20" class="node">
<title>VideoConferenciaCreadaPublisher </title>
<polygon fill="#fb8072" stroke="black" points="4350.15,-220.8 4135.85,-220.8 4135.85,-184.8 4350.15,-184.8 4350.15,-220.8"/>
<text text-anchor="middle" x="4243" y="-198.6" font-family="Times,serif" font-size="14.00">VideoConferenciaCreadaPublisher </text>
</g>
<!-- MensajeriaModuleCuenta&#45;&gt;VideoConferenciaCreadaPublisher  -->
<g id="edge18" class="edge">
<title>MensajeriaModuleCuenta&#45;&gt;VideoConferenciaCreadaPublisher </title>
<path fill="none" stroke="black" stroke-dasharray="5,2" d="M3246.82,-153.01C3246.82,-158.35 3246.82,-162.8 3246.82,-162.8 3246.82,-162.8 4243,-162.8 4243,-162.8 4243,-162.8 4243,-174.67 4243,-174.67"/>
<polygon fill="black" stroke="black" points="4239.5,-174.67 4243,-184.67 4246.5,-174.67 4239.5,-174.67"/>
</g>
<!-- MongoModuleCuenta -->
<g id="node2" class="node">
<title>MongoModuleCuenta</title>
<polygon fill="#8dd3c7" stroke="black" points="3469.66,-152.8 3466.66,-156.8 3445.66,-156.8 3442.66,-152.8 3330.34,-152.8 3330.34,-116.8 3469.66,-116.8 3469.66,-152.8"/>
<text text-anchor="middle" x="3400" y="-130.6" font-family="Times,serif" font-size="14.00">MongoModuleCuenta</text>
</g>
<!-- MongoModuleCuenta&#45;&gt;CuentaModule -->
<g id="edge2" class="edge">
<title>MongoModuleCuenta&#45;&gt;CuentaModule</title>
<path fill="none" stroke="black" d="M3434.91,-153.05C3434.91,-175.82 3434.91,-211.8 3434.91,-211.8 3434.91,-211.8 3240.86,-211.8 3240.86,-211.8"/>
<polygon fill="black" stroke="black" points="3240.86,-208.3 3230.86,-211.8 3240.86,-215.3 3240.86,-208.3"/>
</g>
<!-- ConfigService  -->
<g id="node23" class="node">
<title>ConfigService </title>
<polygon fill="#fb8072" stroke="black" points="2910.37,-220.8 2809.63,-220.8 2809.63,-184.8 2910.37,-184.8 2910.37,-220.8"/>
<text text-anchor="middle" x="2860" y="-198.6" font-family="Times,serif" font-size="14.00">ConfigService </text>
</g>
<!-- MongoModuleCuenta&#45;&gt;ConfigService  -->
<g id="edge34" class="edge">
<title>MongoModuleCuenta&#45;&gt;ConfigService </title>
<path fill="none" stroke="black" stroke-dasharray="5,2" d="M3400,-152.9C3400,-163.89 3400,-175.8 3400,-175.8 3400,-175.8 2885.09,-175.8 2885.09,-175.8 2885.09,-175.8 2885.09,-176.68 2885.09,-176.68"/>
<polygon fill="black" stroke="black" points="2881.59,-174.64 2885.09,-184.64 2888.59,-174.64 2881.59,-174.64"/>
</g>
<!-- MongooseConfigService  -->
<g id="node26" class="node">
<title>MongooseConfigService </title>
<polygon fill="#fb8072" stroke="black" points="2791.98,-220.8 2632.02,-220.8 2632.02,-184.8 2791.98,-184.8 2791.98,-220.8"/>
<text text-anchor="middle" x="2712" y="-198.6" font-family="Times,serif" font-size="14.00">MongooseConfigService </text>
</g>
<!-- MongoModuleCuenta&#45;&gt;MongooseConfigService  -->
<g id="edge35" class="edge">
<title>MongoModuleCuenta&#45;&gt;MongooseConfigService </title>
<path fill="none" stroke="black" stroke-dasharray="5,2" d="M3365.09,-152.87C3365.09,-162.26 3365.09,-171.8 3365.09,-171.8 3365.09,-171.8 2729.52,-171.8 2729.52,-171.8 2729.52,-171.8 2729.52,-174.77 2729.52,-174.77"/>
<polygon fill="black" stroke="black" points="2726.02,-174.77 2729.52,-184.77 2733.02,-174.77 2726.02,-174.77"/>
</g>
<!-- AudioConferenciaMongoService  -->
<g id="node35" class="node">
<title>AudioConferenciaMongoService </title>
<polygon fill="#fb8072" stroke="black" points="6053.84,-220.8 5848.16,-220.8 5848.16,-184.8 6053.84,-184.8 6053.84,-220.8"/>
<text text-anchor="middle" x="5951" y="-198.6" font-family="Times,serif" font-size="14.00">AudioConferenciaMongoService </text>
</g>
<!-- MongoModuleCuenta&#45;&gt;AudioConferenciaMongoService  -->
<g id="edge32" class="edge">
<title>MongoModuleCuenta&#45;&gt;AudioConferenciaMongoService </title>
<path fill="none" stroke="black" stroke-dasharray="5,2" d="M3469.89,-122.8C3879.53,-122.8 5951,-122.8 5951,-122.8 5951,-122.8 5951,-174.65 5951,-174.65"/>
<polygon fill="black" stroke="black" points="5947.5,-174.65 5951,-184.65 5954.5,-174.65 5947.5,-174.65"/>
</g>
<!-- AudioConferenciaRepository  -->
<g id="node36" class="node">
<title>AudioConferenciaRepository </title>
<polygon fill="#fb8072" stroke="black" points="5830.35,-220.8 5645.65,-220.8 5645.65,-184.8 5830.35,-184.8 5830.35,-220.8"/>
<text text-anchor="middle" x="5738" y="-198.6" font-family="Times,serif" font-size="14.00">AudioConferenciaRepository </text>
</g>
<!-- MongoModuleCuenta&#45;&gt;AudioConferenciaRepository  -->
<g id="edge33" class="edge">
<title>MongoModuleCuenta&#45;&gt;AudioConferenciaRepository </title>
<path fill="none" stroke="black" stroke-dasharray="5,2" d="M3469.97,-127.8C3858.99,-127.8 5738,-127.8 5738,-127.8 5738,-127.8 5738,-174.64 5738,-174.64"/>
<polygon fill="black" stroke="black" points="5734.5,-174.64 5738,-184.64 5741.5,-174.64 5734.5,-174.64"/>
</g>
<!-- VideoConferenciaMongoService  -->
<g id="node37" class="node">
<title>VideoConferenciaMongoService </title>
<polygon fill="#fb8072" stroke="black" points="5628.05,-220.8 5423.95,-220.8 5423.95,-184.8 5628.05,-184.8 5628.05,-220.8"/>
<text text-anchor="middle" x="5526" y="-198.6" font-family="Times,serif" font-size="14.00">VideoConferenciaMongoService </text>
</g>
<!-- MongoModuleCuenta&#45;&gt;VideoConferenciaMongoService  -->
<g id="edge36" class="edge">
<title>MongoModuleCuenta&#45;&gt;VideoConferenciaMongoService </title>
<path fill="none" stroke="black" stroke-dasharray="5,2" d="M3469.83,-132.8C3836.85,-132.8 5526,-132.8 5526,-132.8 5526,-132.8 5526,-174.77 5526,-174.77"/>
<polygon fill="black" stroke="black" points="5522.5,-174.77 5526,-184.77 5529.5,-174.77 5522.5,-174.77"/>
</g>
<!-- VideoConferenciaRepository  -->
<g id="node38" class="node">
<title>VideoConferenciaRepository </title>
<polygon fill="#fb8072" stroke="black" points="5405.56,-220.8 5222.44,-220.8 5222.44,-184.8 5405.56,-184.8 5405.56,-220.8"/>
<text text-anchor="middle" x="5314" y="-198.6" font-family="Times,serif" font-size="14.00">VideoConferenciaRepository </text>
</g>
<!-- MongoModuleCuenta&#45;&gt;VideoConferenciaRepository  -->
<g id="edge37" class="edge">
<title>MongoModuleCuenta&#45;&gt;VideoConferenciaRepository </title>
<path fill="none" stroke="black" stroke-dasharray="5,2" d="M3469.82,-137.8C3814.05,-137.8 5314,-137.8 5314,-137.8 5314,-137.8 5314,-174.69 5314,-174.69"/>
<polygon fill="black" stroke="black" points="5310.5,-174.69 5314,-184.69 5317.5,-174.69 5310.5,-174.69"/>
</g>
<!-- AudioConferenciaRepository -->
<g id="node4" class="node">
<title>AudioConferenciaRepository</title>
<ellipse fill="#fdb462" stroke="black" cx="3345" cy="-66.8" rx="124.99" ry="18"/>
<text text-anchor="middle" x="3345" y="-62.6" font-family="Times,serif" font-size="14.00">AudioConferenciaRepository</text>
</g>
<!-- AudioConferenciaRepository&#45;&gt;MongoModuleCuenta -->
<g id="edge39" class="edge">
<title>AudioConferenciaRepository&#45;&gt;MongoModuleCuenta</title>
<path fill="none" stroke="black" d="M3434.85,-79.59C3434.85,-79.59 3434.85,-106.68 3434.85,-106.68"/>
<polygon fill="black" stroke="black" points="3431.35,-106.68 3434.85,-116.68 3438.35,-106.68 3431.35,-106.68"/>
</g>
<!-- AudioConferenciaRepository&#45;&gt;CuentaModule -->
<g id="edge3" class="edge">
<title>AudioConferenciaRepository&#45;&gt;CuentaModule</title>
<path fill="none" stroke="black" d="M3320.94,-84.58C3320.94,-121.44 3320.94,-202.8 3320.94,-202.8 3320.94,-202.8 3240.73,-202.8 3240.73,-202.8"/>
<polygon fill="black" stroke="black" points="3240.73,-199.3 3230.73,-202.8 3240.73,-206.3 3240.73,-199.3"/>
</g>
<!-- VideoConferenciaRepository -->
<g id="node5" class="node">
<title>VideoConferenciaRepository</title>
<ellipse fill="#fdb462" stroke="black" cx="3078" cy="-66.8" rx="124.41" ry="18"/>
<text text-anchor="middle" x="3078" y="-62.6" font-family="Times,serif" font-size="14.00">VideoConferenciaRepository</text>
</g>
<!-- VideoConferenciaRepository&#45;&gt;MongoModuleCuenta -->
<g id="edge42" class="edge">
<title>VideoConferenciaRepository&#45;&gt;MongoModuleCuenta</title>
<path fill="none" stroke="black" d="M3176.25,-77.93C3176.25,-86.11 3176.25,-95.8 3176.25,-95.8 3176.25,-95.8 3399.96,-95.8 3399.96,-95.8 3399.96,-95.8 3399.96,-106.67 3399.96,-106.67"/>
<polygon fill="black" stroke="black" points="3396.46,-106.67 3399.96,-116.67 3403.46,-106.67 3396.46,-106.67"/>
</g>
<!-- VideoConferenciaRepository&#45;&gt;CuentaModule -->
<g id="edge4" class="edge">
<title>VideoConferenciaRepository&#45;&gt;CuentaModule</title>
<path fill="none" stroke="black" d="M3140.85,-82.4C3140.85,-82.4 3140.85,-174.36 3140.85,-174.36"/>
<polygon fill="black" stroke="black" points="3137.35,-174.36 3140.85,-184.36 3144.35,-174.36 3137.35,-174.36"/>
</g>
<!-- EmpresaBuscadaPublisher  -->
<g id="node6" class="node">
<title>EmpresaBuscadaPublisher </title>
<polygon fill="#fb8072" stroke="black" points="1420.3,-220.8 1251.7,-220.8 1251.7,-184.8 1420.3,-184.8 1420.3,-220.8"/>
<text text-anchor="middle" x="1336" y="-198.6" font-family="Times,serif" font-size="14.00">EmpresaBuscadaPublisher </text>
</g>
<!-- EmpresaRegistradaPublisher  -->
<g id="node7" class="node">
<title>EmpresaRegistradaPublisher </title>
<polygon fill="#fb8072" stroke="black" points="1233.74,-220.8 1052.26,-220.8 1052.26,-184.8 1233.74,-184.8 1233.74,-220.8"/>
<text text-anchor="middle" x="1143" y="-198.6" font-family="Times,serif" font-size="14.00">EmpresaRegistradaPublisher </text>
</g>
<!-- PersonaBuscadaPublisher  -->
<g id="node8" class="node">
<title>PersonaBuscadaPublisher </title>
<polygon fill="#fb8072" stroke="black" points="1034.14,-220.8 869.86,-220.8 869.86,-184.8 1034.14,-184.8 1034.14,-220.8"/>
<text text-anchor="middle" x="952" y="-198.6" font-family="Times,serif" font-size="14.00">PersonaBuscadaPublisher </text>
</g>
<!-- PersonaEditadaPublisher  -->
<g id="node9" class="node">
<title>PersonaEditadaPublisher </title>
<polygon fill="#fb8072" stroke="black" points="851.97,-220.8 692.03,-220.8 692.03,-184.8 851.97,-184.8 851.97,-220.8"/>
<text text-anchor="middle" x="772" y="-198.6" font-family="Times,serif" font-size="14.00">PersonaEditadaPublisher </text>
</g>
<!-- PersonaEliminadaPublisher  -->
<g id="node10" class="node">
<title>PersonaEliminadaPublisher </title>
<polygon fill="#fb8072" stroke="black" points="674.25,-220.8 499.75,-220.8 499.75,-184.8 674.25,-184.8 674.25,-220.8"/>
<text text-anchor="middle" x="587" y="-198.6" font-family="Times,serif" font-size="14.00">PersonaEliminadaPublisher </text>
</g>
<!-- PersonaRegistradaPublisher  -->
<g id="node11" class="node">
<title>PersonaRegistradaPublisher </title>
<polygon fill="#fb8072" stroke="black" points="482.08,-220.8 305.92,-220.8 305.92,-184.8 482.08,-184.8 482.08,-220.8"/>
<text text-anchor="middle" x="394" y="-198.6" font-family="Times,serif" font-size="14.00">PersonaRegistradaPublisher </text>
</g>
<!-- MensajeriaModule -->
<g id="node12" class="node">
<title>MensajeriaModule</title>
<polygon fill="#8dd3c7" stroke="black" points="934.75,-152.8 931.75,-156.8 910.75,-156.8 907.75,-152.8 813.25,-152.8 813.25,-116.8 934.75,-116.8 934.75,-152.8"/>
<text text-anchor="middle" x="874" y="-130.6" font-family="Times,serif" font-size="14.00">MensajeriaModule</text>
</g>
<!-- MensajeriaModule&#45;&gt;EmpresaBuscadaPublisher  -->
<g id="edge5" class="edge">
<title>MensajeriaModule&#45;&gt;EmpresaBuscadaPublisher </title>
<path fill="none" stroke="black" stroke-dasharray="5,2" d="M935.1,-140.8C1043.2,-140.8 1256.91,-140.8 1256.91,-140.8 1256.91,-140.8 1256.91,-174.53 1256.91,-174.53"/>
<polygon fill="black" stroke="black" points="1253.41,-174.53 1256.91,-184.53 1260.41,-174.53 1253.41,-174.53"/>
</g>
<!-- MensajeriaModule&#45;&gt;EmpresaRegistradaPublisher  -->
<g id="edge6" class="edge">
<title>MensajeriaModule&#45;&gt;EmpresaRegistradaPublisher </title>
<path fill="none" stroke="black" stroke-dasharray="5,2" d="M935.04,-146.8C1014.41,-146.8 1143,-146.8 1143,-146.8 1143,-146.8 1143,-174.77 1143,-174.77"/>
<polygon fill="black" stroke="black" points="1139.5,-174.77 1143,-184.77 1146.5,-174.77 1139.5,-174.77"/>
</g>
<!-- MensajeriaModule&#45;&gt;PersonaBuscadaPublisher  -->
<g id="edge7" class="edge">
<title>MensajeriaModule&#45;&gt;PersonaBuscadaPublisher </title>
<path fill="none" stroke="black" stroke-dasharray="5,2" d="M902.4,-153.02C902.4,-153.02 902.4,-174.53 902.4,-174.53"/>
<polygon fill="black" stroke="black" points="898.9,-174.53 902.4,-184.53 905.9,-174.53 898.9,-174.53"/>
</g>
<!-- MensajeriaModule&#45;&gt;PersonaEditadaPublisher  -->
<g id="edge8" class="edge">
<title>MensajeriaModule&#45;&gt;PersonaEditadaPublisher </title>
<path fill="none" stroke="black" stroke-dasharray="5,2" d="M832.43,-153.02C832.43,-153.02 832.43,-174.53 832.43,-174.53"/>
<polygon fill="black" stroke="black" points="828.93,-174.53 832.43,-184.53 835.93,-174.53 828.93,-174.53"/>
</g>
<!-- MensajeriaModule&#45;&gt;PersonaEliminadaPublisher  -->
<g id="edge9" class="edge">
<title>MensajeriaModule&#45;&gt;PersonaEliminadaPublisher </title>
<path fill="none" stroke="black" stroke-dasharray="5,2" d="M813.13,-146.8C728.89,-146.8 587,-146.8 587,-146.8 587,-146.8 587,-174.77 587,-174.77"/>
<polygon fill="black" stroke="black" points="583.5,-174.77 587,-184.77 590.5,-174.77 583.5,-174.77"/>
</g>
<!-- MensajeriaModule&#45;&gt;PersonaRegistradaPublisher  -->
<g id="edge10" class="edge">
<title>MensajeriaModule&#45;&gt;PersonaRegistradaPublisher </title>
<path fill="none" stroke="black" stroke-dasharray="5,2" d="M812.92,-140.8C689.3,-140.8 421.11,-140.8 421.11,-140.8 421.11,-140.8 421.11,-174.53 421.11,-174.53"/>
<polygon fill="black" stroke="black" points="417.61,-174.53 421.11,-184.53 424.61,-174.53 417.61,-174.53"/>
</g>
<!-- UsuarioModule -->
<g id="node41" class="node">
<title>UsuarioModule</title>
<polygon fill="#8dd3c7" stroke="black" points="1837.88,-220.8 1834.88,-224.8 1813.88,-224.8 1810.88,-220.8 1734.12,-220.8 1734.12,-184.8 1837.88,-184.8 1837.88,-220.8"/>
<text text-anchor="middle" x="1786" y="-198.6" font-family="Times,serif" font-size="14.00">UsuarioModule</text>
</g>
<!-- MensajeriaModule&#45;&gt;UsuarioModule -->
<g id="edge43" class="edge">
<title>MensajeriaModule&#45;&gt;UsuarioModule</title>
<path fill="none" stroke="black" d="M934.96,-134.8C1084.82,-134.8 1459.09,-134.8 1459.09,-134.8 1459.09,-134.8 1459.09,-208.8 1459.09,-208.8 1459.09,-208.8 1723.84,-208.8 1723.84,-208.8"/>
<polygon fill="black" stroke="black" points="1723.84,-212.3 1733.84,-208.8 1723.84,-205.3 1723.84,-212.3"/>
</g>
<!-- EmpresaBuscadaPublisher -->
<g id="node13" class="node">
<title>EmpresaBuscadaPublisher</title>
<ellipse fill="#fdb462" stroke="black" cx="874" cy="-66.8" rx="114.04" ry="18"/>
<text text-anchor="middle" x="874" y="-62.6" font-family="Times,serif" font-size="14.00">EmpresaBuscadaPublisher</text>
</g>
<!-- EmpresaBuscadaPublisher&#45;&gt;MensajeriaModule -->
<g id="edge11" class="edge">
<title>EmpresaBuscadaPublisher&#45;&gt;MensajeriaModule</title>
<path fill="none" stroke="black" d="M874,-85.02C874,-85.02 874,-106.53 874,-106.53"/>
<polygon fill="black" stroke="black" points="870.5,-106.53 874,-116.53 877.5,-106.53 870.5,-106.53"/>
</g>
<!-- EmpresaRegistradaPublisher -->
<g id="node14" class="node">
<title>EmpresaRegistradaPublisher</title>
<ellipse fill="#fdb462" stroke="black" cx="619" cy="-66.8" rx="122.7" ry="18"/>
<text text-anchor="middle" x="619" y="-62.6" font-family="Times,serif" font-size="14.00">EmpresaRegistradaPublisher</text>
</g>
<!-- EmpresaRegistradaPublisher&#45;&gt;MensajeriaModule -->
<g id="edge12" class="edge">
<title>EmpresaRegistradaPublisher&#45;&gt;MensajeriaModule</title>
<path fill="none" stroke="black" d="M716.93,-77.86C716.93,-94.18 716.93,-122.8 716.93,-122.8 716.93,-122.8 802.82,-122.8 802.82,-122.8"/>
<polygon fill="black" stroke="black" points="802.82,-126.3 812.82,-122.8 802.82,-119.3 802.82,-126.3"/>
</g>
<!-- PersonaBuscadaPublisher -->
<g id="node15" class="node">
<title>PersonaBuscadaPublisher</title>
<ellipse fill="#fdb462" stroke="black" cx="368" cy="-66.8" rx="110.62" ry="18"/>
<text text-anchor="middle" x="368" y="-62.6" font-family="Times,serif" font-size="14.00">PersonaBuscadaPublisher</text>
</g>
<!-- PersonaBuscadaPublisher&#45;&gt;MensajeriaModule -->
<g id="edge13" class="edge">
<title>PersonaBuscadaPublisher&#45;&gt;MensajeriaModule</title>
<path fill="none" stroke="black" d="M363.41,-85.07C363.41,-103.36 363.41,-128.8 363.41,-128.8 363.41,-128.8 803.17,-128.8 803.17,-128.8"/>
<polygon fill="black" stroke="black" points="803.17,-132.3 813.17,-128.8 803.17,-125.3 803.17,-132.3"/>
</g>
<!-- PersonaEditadaPublisher -->
<g id="node16" class="node">
<title>PersonaEditadaPublisher</title>
<ellipse fill="#fdb462" stroke="black" cx="132" cy="-66.8" rx="107.67" ry="18"/>
<text text-anchor="middle" x="132" y="-62.6" font-family="Times,serif" font-size="14.00">PersonaEditadaPublisher</text>
</g>
<!-- PersonaEditadaPublisher&#45;&gt;MensajeriaModule -->
<g id="edge14" class="edge">
<title>PersonaEditadaPublisher&#45;&gt;MensajeriaModule</title>
<path fill="none" stroke="black" d="M132,-85.02C132,-105.17 132,-134.8 132,-134.8 132,-134.8 802.96,-134.8 802.96,-134.8"/>
<polygon fill="black" stroke="black" points="802.96,-138.3 812.96,-134.8 802.96,-131.3 802.96,-138.3"/>
</g>
<!-- PersonaEliminadaPublisher -->
<g id="node17" class="node">
<title>PersonaEliminadaPublisher</title>
<ellipse fill="#fdb462" stroke="black" cx="1380" cy="-66.8" rx="117.56" ry="18"/>
<text text-anchor="middle" x="1380" y="-62.6" font-family="Times,serif" font-size="14.00">PersonaEliminadaPublisher</text>
</g>
<!-- PersonaEliminadaPublisher&#45;&gt;MensajeriaModule -->
<g id="edge15" class="edge">
<title>PersonaEliminadaPublisher&#45;&gt;MensajeriaModule</title>
<path fill="none" stroke="black" d="M1341.31,-84.07C1341.31,-102.42 1341.31,-128.8 1341.31,-128.8 1341.31,-128.8 945.09,-128.8 945.09,-128.8"/>
<polygon fill="black" stroke="black" points="945.09,-125.3 935.09,-128.8 945.09,-132.3 945.09,-125.3"/>
</g>
<!-- PersonaRegistradaPublisher -->
<g id="node18" class="node">
<title>PersonaRegistradaPublisher</title>
<ellipse fill="#fdb462" stroke="black" cx="1125" cy="-66.8" rx="119.28" ry="18"/>
<text text-anchor="middle" x="1125" y="-62.6" font-family="Times,serif" font-size="14.00">PersonaRegistradaPublisher</text>
</g>
<!-- PersonaRegistradaPublisher&#45;&gt;MensajeriaModule -->
<g id="edge16" class="edge">
<title>PersonaRegistradaPublisher&#45;&gt;MensajeriaModule</title>
<path fill="none" stroke="black" d="M1019.84,-75.55C1019.84,-91.3 1019.84,-122.8 1019.84,-122.8 1019.84,-122.8 945,-122.8 945,-122.8"/>
<polygon fill="black" stroke="black" points="945,-119.3 935,-122.8 945,-126.3 945,-119.3"/>
</g>
<!-- AudioConferenciaCreadaPublisher -->
<g id="node21" class="node">
<title>AudioConferenciaCreadaPublisher</title>
<ellipse fill="#fdb462" stroke="black" cx="3966" cy="-202.8" rx="146.38" ry="18"/>
<text text-anchor="middle" x="3966" y="-198.6" font-family="Times,serif" font-size="14.00">AudioConferenciaCreadaPublisher</text>
</g>
<!-- AudioConferenciaCreadaPublisher&#45;&gt;MensajeriaModuleCuenta -->
<g id="edge19" class="edge">
<title>AudioConferenciaCreadaPublisher&#45;&gt;MensajeriaModuleCuenta</title>
<path fill="none" stroke="black" d="M3966,-184.8C3966,-175.8 3966,-166.8 3966,-166.8 3966,-166.8 3279.26,-166.8 3279.26,-166.8 3279.26,-166.8 3279.26,-163.04 3279.26,-163.04"/>
<polygon fill="black" stroke="black" points="3282.76,-163.04 3279.26,-153.04 3275.76,-163.04 3282.76,-163.04"/>
</g>
<!-- VideoConferenciaCreadaPublisher -->
<g id="node22" class="node">
<title>VideoConferenciaCreadaPublisher</title>
<ellipse fill="#fdb462" stroke="black" cx="3656" cy="-202.8" rx="145.8" ry="18"/>
<text text-anchor="middle" x="3656" y="-198.6" font-family="Times,serif" font-size="14.00">VideoConferenciaCreadaPublisher</text>
</g>
<!-- VideoConferenciaCreadaPublisher&#45;&gt;MensajeriaModuleCuenta -->
<g id="edge20" class="edge">
<title>VideoConferenciaCreadaPublisher&#45;&gt;MensajeriaModuleCuenta</title>
<path fill="none" stroke="black" d="M3529.65,-193.8C3425.73,-193.8 3295.48,-193.8 3295.48,-193.8 3295.48,-193.8 3295.48,-162.82 3295.48,-162.82"/>
<polygon fill="black" stroke="black" points="3298.98,-162.82 3295.48,-152.82 3291.98,-162.82 3298.98,-162.82"/>
</g>
<!-- EmpresaMongoService  -->
<g id="node24" class="node">
<title>EmpresaMongoService </title>
<polygon fill="#fb8072" stroke="black" points="2449.41,-220.8 2298.59,-220.8 2298.59,-184.8 2449.41,-184.8 2449.41,-220.8"/>
<text text-anchor="middle" x="2374" y="-198.6" font-family="Times,serif" font-size="14.00">EmpresaMongoService </text>
</g>
<!-- EmpresaRepository  -->
<g id="node25" class="node">
<title>EmpresaRepository </title>
<polygon fill="#fb8072" stroke="black" points="2280.92,-220.8 2151.08,-220.8 2151.08,-184.8 2280.92,-184.8 2280.92,-220.8"/>
<text text-anchor="middle" x="2216" y="-198.6" font-family="Times,serif" font-size="14.00">EmpresaRepository </text>
</g>
<!-- PersonaMongoService  -->
<g id="node27" class="node">
<title>PersonaMongoService </title>
<polygon fill="#fb8072" stroke="black" points="2614.25,-220.8 2467.75,-220.8 2467.75,-184.8 2614.25,-184.8 2614.25,-220.8"/>
<text text-anchor="middle" x="2541" y="-198.6" font-family="Times,serif" font-size="14.00">PersonaMongoService </text>
</g>
<!-- PersonaRepository  -->
<g id="node28" class="node">
<title>PersonaRepository </title>
<polygon fill="#fb8072" stroke="black" points="2132.77,-220.8 2007.23,-220.8 2007.23,-184.8 2132.77,-184.8 2132.77,-220.8"/>
<text text-anchor="middle" x="2070" y="-198.6" font-family="Times,serif" font-size="14.00">PersonaRepository </text>
</g>
<!-- MongoModule -->
<g id="node29" class="node">
<title>MongoModule</title>
<polygon fill="#8dd3c7" stroke="black" points="2419,-152.8 2416,-156.8 2395,-156.8 2392,-152.8 2319,-152.8 2319,-116.8 2419,-116.8 2419,-152.8"/>
<text text-anchor="middle" x="2369" y="-130.6" font-family="Times,serif" font-size="14.00">MongoModule</text>
</g>
<!-- MongoModule&#45;&gt;ConfigService  -->
<g id="edge21" class="edge">
<title>MongoModule&#45;&gt;ConfigService </title>
<path fill="none" stroke="black" stroke-dasharray="5,2" d="M2419.24,-134.8C2544.38,-134.8 2860,-134.8 2860,-134.8 2860,-134.8 2860,-174.58 2860,-174.58"/>
<polygon fill="black" stroke="black" points="2856.5,-174.58 2860,-184.58 2863.5,-174.58 2856.5,-174.58"/>
</g>
<!-- MongoModule&#45;&gt;EmpresaMongoService  -->
<g id="edge22" class="edge">
<title>MongoModule&#45;&gt;EmpresaMongoService </title>
<path fill="none" stroke="black" stroke-dasharray="5,2" d="M2369,-153.02C2369,-153.02 2369,-174.53 2369,-174.53"/>
<polygon fill="black" stroke="black" points="2365.5,-174.53 2369,-184.53 2372.5,-174.53 2365.5,-174.53"/>
</g>
<!-- MongoModule&#45;&gt;EmpresaRepository  -->
<g id="edge23" class="edge">
<title>MongoModule&#45;&gt;EmpresaRepository </title>
<path fill="none" stroke="black" stroke-dasharray="5,2" d="M2318.95,-146.8C2295.12,-146.8 2271.75,-146.8 2271.75,-146.8 2271.75,-146.8 2271.75,-174.77 2271.75,-174.77"/>
<polygon fill="black" stroke="black" points="2268.25,-174.77 2271.75,-184.77 2275.25,-174.77 2268.25,-174.77"/>
</g>
<!-- MongoModule&#45;&gt;MongooseConfigService  -->
<g id="edge24" class="edge">
<title>MongoModule&#45;&gt;MongooseConfigService </title>
<path fill="none" stroke="black" stroke-dasharray="5,2" d="M2419.07,-140.8C2501.44,-140.8 2656.47,-140.8 2656.47,-140.8 2656.47,-140.8 2656.47,-174.53 2656.47,-174.53"/>
<polygon fill="black" stroke="black" points="2652.97,-174.53 2656.47,-184.53 2659.97,-174.53 2652.97,-174.53"/>
</g>
<!-- MongoModule&#45;&gt;PersonaMongoService  -->
<g id="edge25" class="edge">
<title>MongoModule&#45;&gt;PersonaMongoService </title>
<path fill="none" stroke="black" stroke-dasharray="5,2" d="M2419.28,-146.8C2445.68,-146.8 2472.6,-146.8 2472.6,-146.8 2472.6,-146.8 2472.6,-174.77 2472.6,-174.77"/>
<polygon fill="black" stroke="black" points="2469.1,-174.77 2472.6,-184.77 2476.1,-174.77 2469.1,-174.77"/>
</g>
<!-- MongoModule&#45;&gt;PersonaRepository  -->
<g id="edge26" class="edge">
<title>MongoModule&#45;&gt;PersonaRepository </title>
<path fill="none" stroke="black" stroke-dasharray="5,2" d="M2318.94,-140.8C2244.71,-140.8 2114.09,-140.8 2114.09,-140.8 2114.09,-140.8 2114.09,-174.53 2114.09,-174.53"/>
<polygon fill="black" stroke="black" points="2110.59,-174.53 2114.09,-184.53 2117.59,-174.53 2110.59,-174.53"/>
</g>
<!-- MongoModule&#45;&gt;UsuarioModule -->
<g id="edge44" class="edge">
<title>MongoModule&#45;&gt;UsuarioModule</title>
<path fill="none" stroke="black" d="M2318.84,-134.8C2210.94,-134.8 1966.51,-134.8 1966.51,-134.8 1966.51,-134.8 1966.51,-208.8 1966.51,-208.8 1966.51,-208.8 1848.21,-208.8 1848.21,-208.8"/>
<polygon fill="black" stroke="black" points="1848.21,-205.3 1838.21,-208.8 1848.21,-212.3 1848.21,-205.3"/>
</g>
<!-- EmpresaMongoService -->
<g id="node30" class="node">
<title>EmpresaMongoService</title>
<ellipse fill="#fdb462" stroke="black" cx="2579" cy="-66.8" rx="101.86" ry="18"/>
<text text-anchor="middle" x="2579" y="-62.6" font-family="Times,serif" font-size="14.00">EmpresaMongoService</text>
</g>
<!-- EmpresaMongoService&#45;&gt;MongoModule -->
<g id="edge27" class="edge">
<title>EmpresaMongoService&#45;&gt;MongoModule</title>
<path fill="none" stroke="black" d="M2545.72,-83.91C2545.72,-100.37 2545.72,-122.8 2545.72,-122.8 2545.72,-122.8 2429.17,-122.8 2429.17,-122.8"/>
<polygon fill="black" stroke="black" points="2429.17,-119.3 2419.17,-122.8 2429.17,-126.3 2429.17,-119.3"/>
</g>
<!-- EmpresaRepository -->
<g id="node31" class="node">
<title>EmpresaRepository</title>
<ellipse fill="#fdb462" stroke="black" cx="1972" cy="-66.8" rx="87.41" ry="18"/>
<text text-anchor="middle" x="1972" y="-62.6" font-family="Times,serif" font-size="14.00">EmpresaRepository</text>
</g>
<!-- EmpresaRepository&#45;&gt;MongoModule -->
<g id="edge28" class="edge">
<title>EmpresaRepository&#45;&gt;MongoModule</title>
<path fill="none" stroke="black" d="M2033.29,-79.65C2033.29,-97.81 2033.29,-128.8 2033.29,-128.8 2033.29,-128.8 2308.74,-128.8 2308.74,-128.8"/>
<polygon fill="black" stroke="black" points="2308.74,-132.3 2318.74,-128.8 2308.74,-125.3 2308.74,-132.3"/>
</g>
<!-- EmpresaRepository&#45;&gt;UsuarioModule -->
<g id="edge45" class="edge">
<title>EmpresaRepository&#45;&gt;UsuarioModule</title>
<path fill="none" stroke="black" d="M1925.65,-82.22C1925.65,-116.66 1925.65,-196.8 1925.65,-196.8 1925.65,-196.8 1848,-196.8 1848,-196.8"/>
<polygon fill="black" stroke="black" points="1848,-193.3 1838,-196.8 1848,-200.3 1848,-193.3"/>
</g>
<!-- MongooseConfigService -->
<g id="node32" class="node">
<title>MongooseConfigService</title>
<ellipse fill="#fdb462" stroke="black" cx="2806" cy="-66.8" rx="107.68" ry="18"/>
<text text-anchor="middle" x="2806" y="-62.6" font-family="Times,serif" font-size="14.00">MongooseConfigService</text>
</g>
<!-- MongooseConfigService&#45;&gt;MongoModuleCuenta -->
<g id="edge40" class="edge">
<title>MongooseConfigService&#45;&gt;MongoModuleCuenta</title>
<path fill="none" stroke="black" d="M2834.91,-84.46C2834.91,-95.18 2834.91,-106.8 2834.91,-106.8 2834.91,-106.8 3365.07,-106.8 3365.07,-106.8 3365.07,-106.8 3365.07,-107.78 3365.07,-107.78"/>
<polygon fill="black" stroke="black" points="3361.57,-106.59 3365.07,-116.59 3368.57,-106.59 3361.57,-106.59"/>
</g>
<!-- MongooseConfigService&#45;&gt;MongoModule -->
<g id="edge29" class="edge">
<title>MongooseConfigService&#45;&gt;MongoModule</title>
<path fill="none" stroke="black" d="M2760.63,-83.41C2760.63,-101.78 2760.63,-128.8 2760.63,-128.8 2760.63,-128.8 2429.4,-128.8 2429.4,-128.8"/>
<polygon fill="black" stroke="black" points="2429.4,-125.3 2419.4,-128.8 2429.4,-132.3 2429.4,-125.3"/>
</g>
<!-- PersonaMongoService -->
<g id="node33" class="node">
<title>PersonaMongoService</title>
<ellipse fill="#fdb462" stroke="black" cx="2361" cy="-66.8" rx="98.44" ry="18"/>
<text text-anchor="middle" x="2361" y="-62.6" font-family="Times,serif" font-size="14.00">PersonaMongoService</text>
</g>
<!-- PersonaMongoService&#45;&gt;MongoModule -->
<g id="edge30" class="edge">
<title>PersonaMongoService&#45;&gt;MongoModule</title>
<path fill="none" stroke="black" d="M2369,-85.02C2369,-85.02 2369,-106.53 2369,-106.53"/>
<polygon fill="black" stroke="black" points="2365.5,-106.53 2369,-116.53 2372.5,-106.53 2365.5,-106.53"/>
</g>
<!-- PersonaRepository -->
<g id="node34" class="node">
<title>PersonaRepository</title>
<ellipse fill="#fdb462" stroke="black" cx="2161" cy="-66.8" rx="83.98" ry="18"/>
<text text-anchor="middle" x="2161" y="-62.6" font-family="Times,serif" font-size="14.00">PersonaRepository</text>
</g>
<!-- PersonaRepository&#45;&gt;MongoModule -->
<g id="edge31" class="edge">
<title>PersonaRepository&#45;&gt;MongoModule</title>
<path fill="none" stroke="black" d="M2198.02,-83C2198.02,-99.54 2198.02,-122.8 2198.02,-122.8 2198.02,-122.8 2308.62,-122.8 2308.62,-122.8"/>
<polygon fill="black" stroke="black" points="2308.62,-126.3 2318.62,-122.8 2308.62,-119.3 2308.62,-126.3"/>
</g>
<!-- PersonaRepository&#45;&gt;UsuarioModule -->
<g id="edge47" class="edge">
<title>PersonaRepository&#45;&gt;UsuarioModule</title>
<path fill="none" stroke="black" d="M2095.55,-78.15C2095.55,-106.98 2095.55,-180.8 2095.55,-180.8 2095.55,-180.8 1803.31,-180.8 1803.31,-180.8 1803.31,-180.8 1803.31,-181.18 1803.31,-181.18"/>
<polygon fill="black" stroke="black" points="1799.81,-174.63 1803.31,-184.63 1806.81,-174.63 1799.81,-174.63"/>
</g>
<!-- AudioConferenciaMongoService -->
<g id="node39" class="node">
<title>AudioConferenciaMongoService</title>
<ellipse fill="#fdb462" stroke="black" cx="5059" cy="-202.8" rx="139.44" ry="18"/>
<text text-anchor="middle" x="5059" y="-198.6" font-family="Times,serif" font-size="14.00">AudioConferenciaMongoService</text>
</g>
<!-- AudioConferenciaMongoService&#45;&gt;MongoModuleCuenta -->
<g id="edge38" class="edge">
<title>AudioConferenciaMongoService&#45;&gt;MongoModuleCuenta</title>
<path fill="none" stroke="black" d="M5059,-184.8C5059,-167.12 5059,-142.8 5059,-142.8 5059,-142.8 3479.7,-142.8 3479.7,-142.8"/>
<polygon fill="black" stroke="black" points="3479.7,-139.3 3469.7,-142.8 3479.7,-146.3 3479.7,-139.3"/>
</g>
<!-- VideoConferenciaMongoService -->
<g id="node40" class="node">
<title>VideoConferenciaMongoService</title>
<ellipse fill="#fdb462" stroke="black" cx="4763" cy="-202.8" rx="138.86" ry="18"/>
<text text-anchor="middle" x="4763" y="-198.6" font-family="Times,serif" font-size="14.00">VideoConferenciaMongoService</text>
</g>
<!-- VideoConferenciaMongoService&#45;&gt;MongoModuleCuenta -->
<g id="edge41" class="edge">
<title>VideoConferenciaMongoService&#45;&gt;MongoModuleCuenta</title>
<path fill="none" stroke="black" d="M4763,-184.79C4763,-168.75 4763,-147.8 4763,-147.8 4763,-147.8 3479.94,-147.8 3479.94,-147.8"/>
<polygon fill="black" stroke="black" points="3479.94,-144.3 3469.94,-147.8 3479.94,-151.3 3479.94,-144.3"/>
</g>
<!-- EmpresaService -->
<g id="node42" class="node">
<title>EmpresaService</title>
<ellipse fill="#fdb462" stroke="black" cx="1771" cy="-134.8" rx="73.56" ry="18"/>
<text text-anchor="middle" x="1771" y="-130.6" font-family="Times,serif" font-size="14.00">EmpresaService</text>
</g>
<!-- EmpresaService&#45;&gt;UsuarioModule -->
<g id="edge46" class="edge">
<title>EmpresaService&#45;&gt;UsuarioModule</title>
<path fill="none" stroke="black" d="M1768.69,-153.02C1768.69,-153.02 1768.69,-174.53 1768.69,-174.53"/>
<polygon fill="black" stroke="black" points="1765.19,-174.53 1768.69,-184.53 1772.19,-174.53 1765.19,-174.53"/>
</g>
<!-- PersonaService -->
<g id="node43" class="node">
<title>PersonaService</title>
<ellipse fill="#fdb462" stroke="black" cx="1609" cy="-134.8" rx="70.63" ry="18"/>
<text text-anchor="middle" x="1609" y="-130.6" font-family="Times,serif" font-size="14.00">PersonaService</text>
</g>
<!-- PersonaService&#45;&gt;UsuarioModule -->
<g id="edge48" class="edge">
<title>PersonaService&#45;&gt;UsuarioModule</title>
<path fill="none" stroke="black" d="M1609,-153.07C1609,-171.36 1609,-196.8 1609,-196.8 1609,-196.8 1723.85,-196.8 1723.85,-196.8"/>
<polygon fill="black" stroke="black" points="1723.85,-200.3 1733.85,-196.8 1723.85,-193.3 1723.85,-200.3"/>
</g>
</g>
</svg>
